<svg width="512" height="512" viewBox="0 0 512 512" fill="none" xmlns="http://www.w3.org/2000/svg">
<path d="M142.289 43H75.008C68.8677 43.0003 62.9789 45.4395 58.637 49.7813C54.295 54.1231 51.8555 60.0117 51.855 66.152V106.336H165.441V66.152C165.44 60.0119 163.001 54.1234 158.659 49.7816C154.318 45.4399 148.429 43.0005 142.289 43V43Z" fill="#FF6F7F"/>
<path d="M105.914 43H75.008C68.8677 43.0003 62.9789 45.4395 58.637 49.7813C54.295 54.1231 51.8555 60.0117 51.855 66.152V106.336H82.762V66.152C82.7625 60.0119 85.2019 54.1234 89.5436 49.7816C93.8854 45.4399 99.7739 43.0005 105.914 43V43Z" fill="#F8485E"/>
<path d="M369.711 43H436.992C443.132 43.0005 449.021 45.4399 453.362 49.7816C457.704 54.1234 460.144 60.0119 460.144 66.152V106.336H346.559V66.152C346.56 60.0119 348.999 54.1234 353.341 49.7816C357.682 45.4399 363.571 43.0005 369.711 43V43Z" fill="#00C8DE"/>
<path d="M400.617 43H369.711C363.571 43.0005 357.682 45.4399 353.341 49.7816C348.999 54.1234 346.56 60.0119 346.559 66.152V106.336H377.465V66.152C377.466 60.0119 379.905 54.1234 384.247 49.7816C388.588 45.4399 394.477 43.0005 400.617 43V43Z" fill="#00A7C3"/>
<path d="M460.145 81.4451H51.855C38.1025 81.4461 24.9136 86.9097 15.1891 96.6342C5.46468 106.359 0.00106072 119.548 0 133.3L0 417.844C0.000530377 431.597 5.46395 444.786 15.1885 454.511C24.9131 464.236 38.1023 469.699 51.855 469.7H460.145C473.898 469.7 487.087 464.236 496.812 454.511C506.537 444.787 512 431.597 512 417.844V133.3C511.999 119.548 506.535 106.359 496.811 96.6342C487.086 86.9097 473.897 81.4461 460.145 81.4451Z" fill="#5C586F"/>
<path d="M30.906 417.844V133.3C30.9065 119.547 36.3701 106.358 46.0949 96.6333C55.8197 86.9087 69.0092 81.4453 82.762 81.4451H51.855C38.1025 81.4461 24.9136 86.9097 15.1891 96.6342C5.46468 106.359 0.00106072 119.548 0 133.3L0 417.844C0.000530377 431.597 5.46395 444.786 15.1885 454.511C24.9131 464.236 38.1023 469.699 51.855 469.7H82.762C69.0089 469.7 55.8192 464.237 46.0943 454.512C36.3694 444.787 30.906 431.597 30.906 417.844Z" fill="#423E4F"/>
<path d="M118.465 162.973H393.539V367.573H118.465V162.973Z" fill="#00C67F"/>
<path d="M118.465 162.973H149.365V367.573H118.465V162.973Z" fill="#00A45B"/>
<path d="M89.6759 408.777C89.6755 413.271 88.3427 417.663 85.8459 421.399C83.3491 425.135 79.8006 428.047 75.6489 429.767C71.4973 431.486 66.929 431.936 62.5218 431.059C58.1145 430.183 54.0662 428.019 50.8887 424.841C47.7113 421.664 45.5473 417.615 44.6706 413.208C43.7938 408.801 44.2436 404.233 45.963 400.081C47.6825 395.929 50.5944 392.381 54.3305 389.884C58.0667 387.387 62.4593 386.054 66.9529 386.054C69.937 386.054 72.892 386.641 75.6491 387.783C78.4061 388.925 80.9113 390.598 83.0214 392.708C85.1315 394.819 86.8052 397.324 87.947 400.081C89.0888 402.838 89.6763 405.793 89.6759 408.777Z" fill="#A19DAE"/>
<path d="M467.766 408.777C467.766 413.271 466.433 417.664 463.936 421.4C461.439 425.136 457.89 428.048 453.738 429.767C449.586 431.487 445.018 431.936 440.61 431.059C436.203 430.182 432.155 428.018 428.977 424.84C425.8 421.662 423.636 417.613 422.76 413.206C421.884 408.798 422.334 404.23 424.054 400.078C425.774 395.927 428.687 392.378 432.424 389.882C436.16 387.386 440.553 386.054 445.047 386.054C448.031 386.054 450.985 386.642 453.742 387.784C456.499 388.926 459.003 390.6 461.113 392.71C463.223 394.82 464.896 397.325 466.038 400.082C467.179 402.838 467.767 405.793 467.766 408.777Z" fill="#A19DAE"/>
<path d="M238.352 416.5H210.266C208.232 416.477 206.289 415.653 204.859 414.206C203.429 412.76 202.627 410.807 202.627 408.773C202.627 406.739 203.429 404.787 204.859 403.341C206.289 401.894 208.232 401.07 210.266 401.047H238.352C240.386 401.07 242.329 401.894 243.759 403.341C245.189 404.787 245.991 406.739 245.991 408.773C245.991 410.807 245.189 412.76 243.759 414.206C242.329 415.653 240.386 416.477 238.352 416.5Z" fill="#A19DAE"/>
<path d="M301.734 416.5H273.648C271.614 416.477 269.671 415.653 268.241 414.206C266.811 412.76 266.009 410.807 266.009 408.773C266.009 406.739 266.811 404.787 268.241 403.341C269.671 401.894 271.614 401.07 273.648 401.047H301.734C303.768 401.07 305.711 401.894 307.141 403.341C308.571 404.787 309.373 406.739 309.373 408.773C309.373 410.807 308.571 412.76 307.141 414.206C305.711 415.653 303.768 416.477 301.734 416.5Z" fill="#A19DAE"/>
<path d="M89.094 248.891H77.781C76.15 248.891 74.5857 248.244 73.432 247.091C72.2783 245.938 71.6298 244.374 71.629 242.743V231.43C71.629 229.798 70.9808 228.234 69.8271 227.08C68.6734 225.926 67.1086 225.278 65.477 225.278H52.988C51.3564 225.278 49.7916 225.926 48.6379 227.08C47.4841 228.234 46.836 229.798 46.836 231.43V242.743C46.8347 244.374 46.186 245.938 45.0324 247.09C43.8789 248.243 42.3148 248.891 40.684 248.891H29.371C27.7395 248.892 26.1751 249.54 25.0215 250.694C23.8679 251.847 23.2195 253.412 23.219 255.043V267.535C23.219 269.167 23.8672 270.731 25.0209 271.885C26.1746 273.039 27.7394 273.687 29.371 273.687H40.684C42.3154 273.688 43.8799 274.336 45.0335 275.49C46.1871 276.643 46.8355 278.208 46.836 279.839V291.152C46.836 292.784 47.4841 294.348 48.6379 295.502C49.7916 296.656 51.3564 297.304 52.988 297.304H65.477C67.1086 297.304 68.6734 296.656 69.8271 295.502C70.9808 294.348 71.629 292.784 71.629 291.152V279.84C71.629 278.208 72.2771 276.644 73.4309 275.49C74.5846 274.336 76.1494 273.688 77.781 273.688H89.094C90.7256 273.688 92.2904 273.04 93.4441 271.886C94.5978 270.732 95.246 269.168 95.246 267.536V255.043C95.2455 253.412 94.5971 251.847 93.4435 250.694C92.2899 249.54 90.7254 248.892 89.094 248.891Z" fill="#FF6F7F"/>
<path d="M422.906 248.891H434.219C435.85 248.891 437.414 248.244 438.568 247.091C439.722 245.938 440.37 244.374 440.371 242.743V231.43C440.371 229.798 441.019 228.234 442.173 227.08C443.327 225.926 444.891 225.278 446.523 225.278H459.011C460.643 225.278 462.207 225.926 463.361 227.08C464.515 228.234 465.163 229.798 465.163 231.43V242.743C465.164 244.374 465.813 245.938 466.966 247.09C468.12 248.243 469.684 248.891 471.315 248.891H482.628C484.259 248.892 485.824 249.54 486.977 250.694C488.131 251.847 488.779 253.412 488.78 255.043V267.535C488.78 269.167 488.132 270.731 486.978 271.885C485.824 273.039 484.26 273.687 482.628 273.687H471.316C469.684 273.688 468.12 274.336 466.966 275.49C465.813 276.643 465.164 278.208 465.164 279.839V291.152C465.164 292.784 464.516 294.348 463.362 295.502C462.208 296.656 460.644 297.304 459.012 297.304H446.523C444.891 297.304 443.327 296.656 442.173 295.502C441.019 294.348 440.371 292.784 440.371 291.152V279.84C440.371 278.208 439.723 276.644 438.569 275.49C437.415 274.336 435.851 273.688 434.219 273.688H422.906C421.274 273.688 419.71 273.04 418.556 271.886C417.402 270.732 416.754 269.168 416.754 267.536V255.043C416.754 253.412 417.403 251.847 418.556 250.694C419.71 249.54 421.274 248.892 422.906 248.891Z" fill="#00C8DE"/>
<path d="M264.652 122.211C264.652 123.922 264.144 125.595 263.194 127.018C262.243 128.441 260.892 129.55 259.311 130.204C257.73 130.859 255.99 131.031 254.312 130.697C252.634 130.363 251.092 129.539 249.882 128.329C248.672 127.119 247.848 125.577 247.514 123.899C247.18 122.221 247.352 120.481 248.006 118.9C248.661 117.319 249.77 115.968 251.193 115.017C252.616 114.067 254.289 113.559 256 113.559C258.294 113.56 260.495 114.471 262.117 116.094C263.74 117.716 264.651 119.917 264.652 122.211Z" fill="#423E4F"/>
</svg>
