<?xml version="1.0" encoding="windows-1252"?>
<!-- Generator: Adobe Illustrator 15.0.0, SVG Export Plug-In . SVG Version: 6.00 Build 0)  -->
<!DOCTYPE svg PUBLIC "-//W3C//DTD SVG 1.1//EN" "http://www.w3.org/Graphics/SVG/1.1/DTD/svg11.dtd">
<svg version="1.1" id="Capa_1" xmlns="http://www.w3.org/2000/svg" xmlns:xlink="http://www.w3.org/1999/xlink" x="0px" y="0px" width="276px" height="50px" viewBox="0 0 276 50" style="enable-background:new 0 0 276 50;" xml:space="preserve">
<rect y="0.098" style="fill:#FF5959;" width="49.804" height="49.802"/>
<polygon style="fill:#FFFFFF;" points="15.956,18.82 11.448,12.428 11.448,22.973 8.067,22.973 8.057,6.642 11.338,6.642   16.797,14.831 22.255,6.642 25.427,6.642 25.457,22.973 22.143,22.973 22.143,12.474 17.637,18.82 "/>
<polygon style="fill:#FFFFFF;" points="32.218,17.449 34.608,11.262 36.996,17.449 40.278,17.449 35.96,6.642 33.255,6.642   28.938,17.449 "/>
<rect x="22.145" y="39.314" style="fill:#FFFFFF;" width="18.136" height="3.302"/>
<polygon style="fill:#FFFFFF;" points="11.358,39.312 11.358,26.283 8.057,26.283 8.057,39.039 8.057,42.617 17.807,42.617   17.807,39.312 "/>
<polygon style="fill:#FFFFFF;" points="35.801,32.639 35.801,26.283 32.498,26.283 32.498,35.984 40.278,35.984 40.278,32.639 "/>
<polygon style="fill:#FFFFFF;" points="25.444,26.283 22.142,26.283 22.142,35.984 29.922,35.984 29.922,32.639 25.444,32.639 "/>
<polygon style="fill:#2B2622;" points="74.575,15.466 69.031,7.605 69.031,20.573 64.874,20.573 64.86,0.49 68.895,0.49   75.609,10.561 82.321,0.49 86.222,0.49 86.259,20.573 82.183,20.573 82.183,7.663 76.642,15.466 "/>
<rect x="146.684" y="0.541" style="fill:#2B2622;" width="4.133" height="20.084"/>
<polygon style="fill:#2B2622;" points="101.802,13.831 104.74,6.222 107.679,13.831 111.714,13.831 106.405,0.541 103.077,0.541   97.768,13.831 "/>
<polygon style="fill:#2B2622;" points="172.508,13.711 166.484,13.711 162.523,13.711 159.713,20.625 164.016,20.625   165.162,17.448 173.828,17.448 174.975,20.625 179.279,20.625 176.471,13.711 "/>
<path style="fill:#2B2622;" d="M133.995,13.524c2.339-1.094,3.705-3.267,3.705-5.954c0-3.93-2.982-7.029-7.917-7.029h-6.915v20.084  h4.131v-5.854h1.462c0.334,0,0.649,0.038,0.952,0.098c0.29,0.076,0.789,0.285,1.092,0.859l2.598,4.923h4.684L133.995,13.524z   M126.999,11.329V3.984h2.695c2.267,0,3.818,1.262,3.818,3.673c0,2.409-1.551,3.672-3.818,3.672H126.999z"/>
<path style="fill:#2B2622;" d="M85.773,40.789V29.391h4.063v11.652c0,3.471,2.031,4.936,4.231,4.936  c2.201,0,4.231-1.465,4.231-4.936V29.391h4.062v11.398c0,5.98-3.781,8.689-8.293,8.689C89.551,49.479,85.773,46.77,85.773,40.789"/>
<polygon style="fill:#2B2622;" points="111.256,29.391 114.246,29.391 123.64,41.775 123.64,29.391 127.703,29.391 127.703,49.479   124.712,49.479 115.319,36.725 115.319,49.479 111.256,49.479 "/>
<path style="fill:#2B2622;" d="M150.482,46.205h-8.521l-1.131,3.273h-4.23l7.984-20.088h3.275l7.979,20.088h-4.229L150.482,46.205z   M143.26,42.82h5.924l-2.963-7.674L143.26,42.82z"/>
<rect x="188.303" y="29.391" style="fill:#2B2622;" width="4.061" height="20.086"/>
<rect x="201.264" y="45.416" style="fill:#2B2622;" width="22.303" height="4.061"/>
<polygon style="fill:#2B2622;" points="68.947,45.416 68.947,29.391 64.885,29.391 64.885,45.078 64.885,49.479 76.877,49.479   76.877,45.416 "/>
<path style="fill:#2B2622;" d="M242.91,29.301c5.854,0,10.453,4.18,10.453,10.088s-4.6,10.09-10.453,10.09  c-5.852,0-10.451-4.182-10.451-10.09S237.059,29.301,242.91,29.301 M242.91,46.021c3.541,0,6.383-2.703,6.383-6.633  c0-3.932-2.842-6.635-6.383-6.635c-3.539,0-6.381,2.703-6.381,6.635C236.529,43.318,239.371,46.021,242.91,46.021"/>
<path style="fill:#2B2622;" d="M262.238,43.957h4.07c0.137,1.395,1.113,2.064,2.479,2.064c1.363,0,2.26-0.811,2.26-2.064  s-0.781-1.979-3.432-3.064c-3.891-1.604-5.268-3.441-5.268-6.301c0-3.205,2.34-5.297,6.104-5.297c3.483,0,6.104,2.062,6.104,5.465  h-4.068c0-1.199-0.779-2.008-2.092-2.008c-1.338,0-1.979,0.809-1.979,1.783c0,1.172,0.808,1.855,3.541,3.025  c3.901,1.672,5.369,3.645,5.369,6.377c0,3.44-2.664,5.541-6.597,5.541C264.801,49.479,262.461,47.08,262.238,43.957"/>
<path style="fill:#2B2622;" d="M175.678,42.312c2.301-1.074,3.643-3.211,3.643-5.854c0-3.865-2.934-7.067-7.783-7.067h-6.801V49.51  h4.062v-5.969h1.438c0.328,0,0.639,0.037,0.938,0.094c0.285,0.076,0.775,0.281,1.074,0.846l2.555,5.018h4.605L175.678,42.312z   M168.797,40.154v-7.221h2.652c2.227,0,3.752,1.238,3.752,3.609c0,2.369-1.525,3.607-3.752,3.607h-2.652V40.154z"/>
<polygon style="fill:#2B2622;" points="218.057,37.209 218.057,29.391 213.994,29.391 213.994,41.322 223.562,41.322   223.562,37.209 "/>
<polygon style="fill:#2B2622;" points="205.32,29.391 201.26,29.391 201.26,41.322 210.826,41.322 210.826,37.209 205.32,37.209 "/>
</svg>