<?xml version="1.0" encoding="utf-8"?>
<!-- Generator: Adobe Illustrator 15.0.0, SVG Export Plug-In . SVG Version: 6.00 Build 0)  -->
<!DOCTYPE svg PUBLIC "-//W3C//DTD SVG 1.1//EN" "http://www.w3.org/Graphics/SVG/1.1/DTD/svg11.dtd">
<svg version="1.1" id="Capa_1" xmlns="http://www.w3.org/2000/svg" xmlns:xlink="http://www.w3.org/1999/xlink" x="0px" y="0px"
	 width="700px" height="100px" viewBox="0 0 700 100" enable-background="new 0 0 700 100" xml:space="preserve">
<g>
	<path fill="#FFFFFF" d="M51.687,30.054c0-0.475-0.385-0.86-0.86-0.86c-0.475,0-0.86,0.385-0.86,0.86c0,0.475,0.385,0.86,0.86,0.86
		C51.302,30.914,51.687,30.529,51.687,30.054"/>
	<path fill="#FFFFFF" d="M54.698,30.054c0-0.475-0.386-0.86-0.86-0.86c-0.476,0-0.861,0.385-0.861,0.86
		c0,0.475,0.386,0.86,0.861,0.86C54.312,30.914,54.698,30.529,54.698,30.054"/>
	<path fill="#FFFFFF" d="M50.181,33.065c0-0.475-0.385-0.86-0.86-0.86c-0.475,0-0.86,0.385-0.86,0.86s0.385,0.86,0.86,0.86
		C49.796,33.925,50.181,33.54,50.181,33.065"/>
	<path fill="#FFFFFF" d="M59.215,33.065c0-0.475-0.385-0.86-0.859-0.86c-0.477,0-0.861,0.385-0.861,0.86s0.385,0.86,0.861,0.86
		C58.83,33.925,59.215,33.54,59.215,33.065"/>
	<path fill="#FFFFFF" d="M53.192,33.065c0-0.475-0.385-0.86-0.86-0.86s-0.86,0.385-0.86,0.86s0.385,0.86,0.86,0.86
		S53.192,33.54,53.192,33.065"/>
	<path fill="#FFFFFF" d="M56.204,33.065c0-0.475-0.386-0.86-0.86-0.86c-0.477,0-0.861,0.385-0.861,0.86s0.385,0.86,0.861,0.86
		C55.818,33.925,56.204,33.54,56.204,33.065"/>
	<path fill="#FFFFFF" d="M45.664,36.077c0-0.475-0.386-0.86-0.86-0.86c-0.477,0-0.861,0.385-0.861,0.86
		c0,0.475,0.385,0.86,0.861,0.86C45.278,36.937,45.664,36.552,45.664,36.077"/>
	<path fill="#FFFFFF" d="M48.675,36.077c0-0.475-0.385-0.86-0.86-0.86s-0.86,0.385-0.86,0.86c0,0.475,0.385,0.86,0.86,0.86
		S48.675,36.552,48.675,36.077"/>
	<path fill="#FFFFFF" d="M57.71,36.077c0-0.475-0.386-0.86-0.86-0.86c-0.477,0-0.861,0.385-0.861,0.86
		c0,0.475,0.385,0.86,0.861,0.86C57.324,36.937,57.71,36.552,57.71,36.077"/>
	<path fill="#FFFFFF" d="M51.687,36.077c0-0.475-0.385-0.86-0.86-0.86c-0.475,0-0.86,0.385-0.86,0.86c0,0.475,0.385,0.86,0.86,0.86
		C51.302,36.937,51.687,36.552,51.687,36.077"/>
	<path fill="#FFFFFF" d="M54.698,36.077c0-0.475-0.386-0.86-0.86-0.86c-0.476,0-0.861,0.385-0.861,0.86
		c0,0.475,0.386,0.86,0.861,0.86C54.312,36.937,54.698,36.552,54.698,36.077"/>
	<path fill="#FFFFFF" d="M41.146,39.088c0-0.475-0.385-0.86-0.86-0.86s-0.86,0.385-0.86,0.86s0.385,0.86,0.86,0.86
		S41.146,39.563,41.146,39.088"/>
	<path fill="#FFFFFF" d="M44.158,39.088c0-0.475-0.386-0.86-0.86-0.86c-0.476,0-0.861,0.385-0.861,0.86s0.386,0.86,0.861,0.86
		C43.772,39.948,44.158,39.563,44.158,39.088"/>
	<path fill="#FFFFFF" d="M47.169,39.088c0-0.475-0.385-0.86-0.859-0.86c-0.477,0-0.861,0.385-0.861,0.86s0.385,0.86,0.861,0.86
		C46.784,39.948,47.169,39.563,47.169,39.088"/>
	<path fill="#FFFFFF" d="M50.181,39.088c0-0.475-0.385-0.86-0.86-0.86c-0.475,0-0.86,0.385-0.86,0.86s0.385,0.86,0.86,0.86
		C49.796,39.948,50.181,39.563,50.181,39.088"/>
	<path fill="#FFFFFF" d="M38.135,39.088c0-0.475-0.385-0.86-0.86-0.86s-0.86,0.385-0.86,0.86s0.385,0.86,0.86,0.86
		S38.135,39.563,38.135,39.088"/>
	<path fill="#FFFFFF" d="M53.192,39.088c0-0.475-0.385-0.86-0.86-0.86s-0.86,0.385-0.86,0.86s0.385,0.86,0.86,0.86
		S53.192,39.563,53.192,39.088"/>
	<path fill="#FFFFFF" d="M56.204,39.088c0-0.475-0.386-0.86-0.86-0.86c-0.477,0-0.861,0.385-0.861,0.86s0.385,0.86,0.861,0.86
		C55.818,39.948,56.204,39.563,56.204,39.088"/>
	<path fill="#FFFFFF" d="M39.641,42.1c0-0.475-0.385-0.86-0.86-0.86c-0.475,0-0.86,0.385-0.86,0.86s0.385,0.86,0.86,0.86
		C39.256,42.96,39.641,42.575,39.641,42.1"/>
	<path fill="#FFFFFF" d="M42.652,42.1c0-0.475-0.385-0.86-0.86-0.86s-0.861,0.385-0.861,0.86s0.386,0.86,0.861,0.86
		S42.652,42.575,42.652,42.1"/>
	<path fill="#FFFFFF" d="M45.664,42.1c0-0.475-0.386-0.86-0.86-0.86c-0.477,0-0.861,0.385-0.861,0.86s0.385,0.86,0.861,0.86
		C45.278,42.959,45.664,42.575,45.664,42.1"/>
	<path fill="#FFFFFF" d="M48.675,42.1c0-0.475-0.385-0.86-0.86-0.86s-0.86,0.385-0.86,0.86s0.385,0.86,0.86,0.86
		S48.675,42.575,48.675,42.1"/>
	<path fill="#FFFFFF" d="M33.617,42.1c0-0.475-0.385-0.86-0.859-0.86c-0.477,0-0.861,0.385-0.861,0.86s0.385,0.86,0.861,0.86
		C33.232,42.959,33.617,42.575,33.617,42.1"/>
	<path fill="#FFFFFF" d="M36.629,42.1c0-0.475-0.385-0.86-0.86-0.86s-0.86,0.385-0.86,0.86s0.385,0.86,0.86,0.86
		S36.629,42.575,36.629,42.1"/>
	<path fill="#FFFFFF" d="M57.71,42.1c0-0.475-0.386-0.86-0.86-0.86c-0.477,0-0.861,0.385-0.861,0.86s0.385,0.86,0.861,0.86
		C57.324,42.959,57.71,42.575,57.71,42.1"/>
	<path fill="#FFFFFF" d="M60.721,42.1c0-0.475-0.385-0.86-0.859-0.86C59.385,41.24,59,41.625,59,42.1s0.385,0.86,0.861,0.86
		C60.336,42.959,60.721,42.575,60.721,42.1"/>
	<path fill="#FFFFFF" d="M63.732,42.1c0-0.475-0.385-0.86-0.86-0.86s-0.86,0.385-0.86,0.86s0.385,0.86,0.86,0.86
		S63.732,42.575,63.732,42.1"/>
	<path fill="#FFFFFF" d="M51.687,42.1c0-0.475-0.385-0.86-0.86-0.86c-0.475,0-0.86,0.385-0.86,0.86s0.385,0.86,0.86,0.86
		C51.302,42.96,51.687,42.575,51.687,42.1"/>
	<path fill="#FFFFFF" d="M54.698,42.1c0-0.475-0.386-0.86-0.86-0.86c-0.476,0-0.861,0.385-0.861,0.86s0.386,0.86,0.861,0.86
		C54.312,42.959,54.698,42.575,54.698,42.1"/>
	<path fill="#FFFFFF" d="M41.146,45.111c0-0.475-0.385-0.86-0.86-0.86s-0.86,0.385-0.86,0.86s0.385,0.86,0.86,0.86
		S41.146,45.586,41.146,45.111"/>
	<path fill="#FFFFFF" d="M44.158,45.111c0-0.475-0.386-0.86-0.86-0.86c-0.476,0-0.861,0.385-0.861,0.86s0.386,0.86,0.861,0.86
		C43.772,45.971,44.158,45.586,44.158,45.111"/>
	<path fill="#FFFFFF" d="M47.169,45.111c0-0.475-0.385-0.86-0.859-0.86c-0.477,0-0.861,0.385-0.861,0.86s0.385,0.86,0.861,0.86
		C46.784,45.971,47.169,45.586,47.169,45.111"/>
	<path fill="#FFFFFF" d="M50.181,45.111c0-0.475-0.385-0.86-0.86-0.86c-0.475,0-0.86,0.385-0.86,0.86s0.385,0.86,0.86,0.86
		C49.796,45.971,50.181,45.586,50.181,45.111"/>
	<path fill="#FFFFFF" d="M35.123,45.111c0-0.475-0.385-0.86-0.859-0.86c-0.477,0-0.861,0.385-0.861,0.86s0.385,0.86,0.861,0.86
		C34.738,45.971,35.123,45.586,35.123,45.111"/>
	<path fill="#FFFFFF" d="M38.135,45.111c0-0.475-0.385-0.86-0.86-0.86s-0.86,0.385-0.86,0.86s0.385,0.86,0.86,0.86
		S38.135,45.586,38.135,45.111"/>
	<path fill="#FFFFFF" d="M59.215,45.111c0-0.475-0.385-0.86-0.859-0.86c-0.477,0-0.861,0.385-0.861,0.86s0.385,0.86,0.861,0.86
		C58.83,45.971,59.215,45.586,59.215,45.111"/>
	<path fill="#FFFFFF" d="M62.227,45.111c0-0.475-0.385-0.86-0.86-0.86c-0.475,0-0.86,0.385-0.86,0.86s0.385,0.86,0.86,0.86
		C61.842,45.971,62.227,45.586,62.227,45.111"/>
	<path fill="#FFFFFF" d="M65.238,45.111c0-0.475-0.385-0.86-0.86-0.86s-0.86,0.385-0.86,0.86s0.385,0.86,0.86,0.86
		S65.238,45.586,65.238,45.111"/>
	<path fill="#FFFFFF" d="M53.192,45.111c0-0.475-0.385-0.86-0.86-0.86s-0.86,0.385-0.86,0.86s0.385,0.86,0.86,0.86
		S53.192,45.586,53.192,45.111"/>
	<path fill="#FFFFFF" d="M56.204,45.111c0-0.475-0.386-0.86-0.86-0.86c-0.477,0-0.861,0.385-0.861,0.86s0.385,0.86,0.861,0.86
		C55.818,45.971,56.204,45.586,56.204,45.111"/>
	<path fill="#FFFFFF" d="M39.641,48.123c0-0.475-0.385-0.86-0.86-0.86c-0.475,0-0.86,0.385-0.86,0.86s0.385,0.86,0.86,0.86
		C39.256,48.983,39.641,48.598,39.641,48.123"/>
	<path fill="#FFFFFF" d="M42.652,48.123c0-0.475-0.385-0.86-0.86-0.86s-0.861,0.385-0.861,0.86s0.386,0.86,0.861,0.86
		S42.652,48.598,42.652,48.123"/>
	<path fill="#FFFFFF" d="M45.664,48.123c0-0.475-0.386-0.86-0.86-0.86c-0.477,0-0.861,0.385-0.861,0.86s0.385,0.86,0.861,0.86
		C45.278,48.982,45.664,48.598,45.664,48.123"/>
	<path fill="#FFFFFF" d="M48.675,48.123c0-0.475-0.385-0.86-0.86-0.86s-0.86,0.385-0.86,0.86s0.385,0.86,0.86,0.86
		S48.675,48.598,48.675,48.123"/>
	<path fill="#FFFFFF" d="M33.617,48.123c0-0.475-0.385-0.86-0.859-0.86c-0.477,0-0.861,0.385-0.861,0.86s0.385,0.86,0.861,0.86
		C33.232,48.982,33.617,48.598,33.617,48.123"/>
	<path fill="#FFFFFF" d="M36.629,48.123c0-0.475-0.385-0.86-0.86-0.86s-0.86,0.385-0.86,0.86s0.385,0.86,0.86,0.86
		S36.629,48.598,36.629,48.123"/>
	<path fill="#FFFFFF" d="M57.71,48.123c0-0.475-0.386-0.86-0.86-0.86c-0.477,0-0.861,0.385-0.861,0.86s0.385,0.86,0.861,0.86
		C57.324,48.982,57.71,48.598,57.71,48.123"/>
	<path fill="#FFFFFF" d="M60.721,48.123c0-0.475-0.385-0.86-0.859-0.86c-0.477,0-0.861,0.385-0.861,0.86s0.385,0.86,0.861,0.86
		C60.336,48.982,60.721,48.598,60.721,48.123"/>
	<path fill="#FFFFFF" d="M63.732,48.123c0-0.475-0.385-0.86-0.86-0.86s-0.86,0.385-0.86,0.86s0.385,0.86,0.86,0.86
		S63.732,48.598,63.732,48.123"/>
	<path fill="#FFFFFF" d="M66.744,48.123c0-0.475-0.385-0.86-0.86-0.86c-0.475,0-0.861,0.385-0.861,0.86s0.386,0.86,0.861,0.86
		C66.359,48.983,66.744,48.598,66.744,48.123"/>
	<path fill="#FFFFFF" d="M51.687,48.123c0-0.475-0.385-0.86-0.86-0.86c-0.475,0-0.86,0.385-0.86,0.86s0.385,0.86,0.86,0.86
		C51.302,48.983,51.687,48.598,51.687,48.123"/>
	<path fill="#FFFFFF" d="M54.698,48.123c0-0.475-0.386-0.86-0.86-0.86c-0.476,0-0.861,0.385-0.861,0.86s0.386,0.86,0.861,0.86
		C54.312,48.982,54.698,48.598,54.698,48.123"/>
	<path fill="#FFFFFF" d="M41.146,51.135c0-0.476-0.385-0.86-0.86-0.86s-0.86,0.385-0.86,0.86s0.385,0.859,0.86,0.859
		S41.146,51.609,41.146,51.135"/>
	<path fill="#FFFFFF" d="M44.158,51.135c0-0.476-0.386-0.86-0.86-0.86c-0.476,0-0.861,0.385-0.861,0.86s0.386,0.859,0.861,0.859
		C43.772,51.994,44.158,51.609,44.158,51.135"/>
	<path fill="#FFFFFF" d="M47.169,51.135c0-0.476-0.385-0.86-0.859-0.86c-0.477,0-0.861,0.385-0.861,0.86s0.385,0.859,0.861,0.859
		C46.784,51.994,47.169,51.609,47.169,51.135"/>
	<path fill="#FFFFFF" d="M50.181,51.135c0-0.476-0.385-0.86-0.86-0.86c-0.475,0-0.86,0.385-0.86,0.86s0.385,0.859,0.86,0.859
		C49.796,51.994,50.181,51.609,50.181,51.135"/>
	<path fill="#FFFFFF" d="M35.123,51.135c0-0.476-0.385-0.86-0.859-0.86c-0.477,0-0.861,0.385-0.861,0.86s0.385,0.859,0.861,0.859
		C34.738,51.994,35.123,51.609,35.123,51.135"/>
	<path fill="#FFFFFF" d="M38.135,51.135c0-0.476-0.385-0.86-0.86-0.86s-0.86,0.385-0.86,0.86s0.385,0.859,0.86,0.859
		S38.135,51.609,38.135,51.135"/>
	<path fill="#FFFFFF" d="M59.215,51.135c0-0.476-0.385-0.86-0.859-0.86c-0.477,0-0.861,0.385-0.861,0.86s0.385,0.859,0.861,0.859
		C58.83,51.994,59.215,51.609,59.215,51.135"/>
	<path fill="#FFFFFF" d="M62.227,51.135c0-0.476-0.385-0.86-0.86-0.86c-0.475,0-0.86,0.385-0.86,0.86s0.385,0.859,0.86,0.859
		C61.842,51.994,62.227,51.609,62.227,51.135"/>
	<path fill="#FFFFFF" d="M65.238,51.135c0-0.476-0.385-0.86-0.86-0.86s-0.86,0.385-0.86,0.86s0.385,0.859,0.86,0.859
		S65.238,51.609,65.238,51.135"/>
	<path fill="#FFFFFF" d="M53.192,51.135c0-0.476-0.385-0.86-0.86-0.86s-0.86,0.385-0.86,0.86s0.385,0.859,0.86,0.859
		S53.192,51.609,53.192,51.135"/>
	<path fill="#FFFFFF" d="M56.204,51.135c0-0.476-0.386-0.86-0.86-0.86c-0.477,0-0.861,0.385-0.861,0.86s0.385,0.859,0.861,0.859
		C55.818,51.994,56.204,51.609,56.204,51.135"/>
	<path fill="#2B2622" d="M67.867,46.601c0-3.87-2.907-6.339-8.086-6.998c0.286-0.419,0.516-0.891,0.685-1.411
		c0.858-2.627-0.068-6.225-2.108-8.189c-3.676-3.541-12.443-4.825-12.53-4.816c-0.395,0.043,1.263,2.332,1.076,2.682
		c-0.188,0.351-0.183,0.782,0.001,1.134c0.033,0.064,0.791,1.569-0.54,4.063c-0.494,0.928-2.849,1.738-5.125,2.521
		c-4.85,1.67-11.493,3.955-11.493,10.801c0,3.516,1.456,5.508,2.764,6.588c0,0.002,0,0.002,0,0.004v0.424
		c0,0.085,0.01,0.169,0.026,0.252l4.359,20.304c0.119,0.556,0.608,0.95,1.175,0.95h22.111c0.566,0,1.056-0.396,1.175-0.95
		l4.357-20.304c0.019-0.083,0.027-0.167,0.027-0.252V52.98c0-0.157-0.032-0.309-0.087-0.444
		C66.946,51.445,67.867,49.638,67.867,46.601 M42.021,37.86c2.964-1.02,5.524-1.902,6.464-3.663
		c1.021-1.917,1.146-3.517,1.016-4.636c1.875,0.006,5.246,0.301,7.189,2.172c1.384,1.333,2.067,3.95,1.492,5.714
		c-0.372,1.139-1.214,1.813-2.5,2.004c-0.589,0.026-0.94,0.062-0.94,0.062c-0.636,0.068-1.108,0.621-1.075,1.259
		c0.034,0.638,0.561,1.138,1.199,1.138c0.354,0,0.701-0.021,1.029-0.063c0.26-0.01,0.564-0.018,0.903-0.018
		c3.236,0,8.665,0.62,8.665,4.772c0,4.773-2.471,5.17-6.249,5.176h-24.12c-0.611-0.254-2.944-1.482-2.944-5.389
		C32.149,41.257,37.394,39.452,42.021,37.86 M63.145,54.182L59.21,72.507H39.041l-3.934-18.325h24.002c0.081,0,0.17,0,0.254,0
		H63.145z"/>
	<path fill="#2B2622" d="M45.503,58.316c-0.114-0.653-0.736-1.094-1.39-0.979c-0.654,0.115-1.092,0.736-0.979,1.392l1.678,9.642
		c0.103,0.586,0.609,0.996,1.183,0.996c0.068,0,0.138-0.005,0.208-0.019c0.653-0.113,1.091-0.736,0.978-1.39L45.503,58.316z"/>
	<path fill="#2B2622" d="M54.988,57.34c-0.659-0.119-1.275,0.323-1.39,0.979l-1.678,9.644c-0.113,0.652,0.323,1.274,0.978,1.39
		c0.07,0.012,0.139,0.019,0.208,0.019c0.573,0,1.08-0.412,1.183-0.996l1.678-9.642C56.079,58.075,55.643,57.452,54.988,57.34"/>
	<path fill="#FFFFFF" d="M160.578,47.243c0.475,0,0.859-0.385,0.859-0.86c0-0.476-0.385-0.861-0.859-0.861
		c-0.476,0-0.86,0.385-0.86,0.861C159.718,46.858,160.103,47.243,160.578,47.243"/>
	<path fill="#FFFFFF" d="M160.578,50.255c0.475,0,0.859-0.385,0.859-0.86c0-0.476-0.385-0.861-0.859-0.861
		c-0.476,0-0.86,0.385-0.86,0.861C159.718,49.87,160.103,50.255,160.578,50.255"/>
	<path fill="#FFFFFF" d="M160.578,53.266c0.475,0,0.859-0.385,0.859-0.857c0-0.479-0.385-0.861-0.859-0.861
		c-0.476,0-0.86,0.387-0.86,0.861C159.718,52.881,160.103,53.266,160.578,53.266"/>
	<path fill="#FFFFFF" d="M160.578,56.277c0.475,0,0.859-0.385,0.859-0.859c0-0.477-0.385-0.861-0.859-0.861
		c-0.476,0-0.86,0.385-0.86,0.861C159.718,55.893,160.103,56.277,160.578,56.277"/>
	<path fill="#FFFFFF" d="M160.578,65.312c0.475,0,0.859-0.387,0.859-0.861s-0.385-0.859-0.859-0.859c-0.476,0-0.86,0.385-0.86,0.859
		C159.718,64.928,160.103,65.312,160.578,65.312"/>
	<path fill="#FFFFFF" d="M160.578,68.324c0.475,0,0.859-0.385,0.859-0.861c0-0.475-0.385-0.861-0.859-0.861
		c-0.476,0-0.86,0.389-0.86,0.861C159.718,67.939,160.103,68.324,160.578,68.324"/>
	<path fill="#FFFFFF" d="M160.578,71.334c0.475,0,0.859-0.385,0.859-0.859c0-0.477-0.385-0.859-0.859-0.859
		c-0.476,0-0.86,0.385-0.86,0.859S160.103,71.334,160.578,71.334"/>
	<path fill="#FFFFFF" d="M160.578,74.346c0.475,0,0.859-0.385,0.859-0.859c0-0.477-0.385-0.859-0.859-0.859
		c-0.476,0-0.86,0.385-0.86,0.859S160.103,74.346,160.578,74.346"/>
	<path fill="#FFFFFF" d="M160.578,59.289c0.475,0,0.859-0.385,0.859-0.859c0-0.477-0.385-0.861-0.859-0.861
		c-0.476,0-0.86,0.387-0.86,0.861S160.103,59.289,160.578,59.289"/>
	<path fill="#FFFFFF" d="M160.578,62.301c0.475,0,0.859-0.385,0.859-0.859c0-0.477-0.385-0.859-0.859-0.859
		c-0.476,0-0.86,0.385-0.86,0.859S160.103,62.301,160.578,62.301"/>
	<path fill="#FFFFFF" d="M157.566,48.749c0.475,0,0.86-0.385,0.86-0.86c0-0.476-0.386-0.861-0.86-0.861s-0.86,0.385-0.86,0.861
		C156.706,48.364,157.092,48.749,157.566,48.749"/>
	<path fill="#FFFFFF" d="M157.566,51.76c0.475,0,0.86-0.385,0.86-0.859c0-0.476-0.386-0.859-0.86-0.859s-0.86,0.385-0.86,0.859
		S157.092,51.76,157.566,51.76"/>
	<path fill="#FFFFFF" d="M157.566,54.771c0.475,0,0.86-0.387,0.86-0.859c0-0.477-0.386-0.861-0.86-0.861s-0.86,0.385-0.86,0.861
		C156.706,54.387,157.092,54.771,157.566,54.771"/>
	<path fill="#FFFFFF" d="M157.566,57.783c0.475,0,0.86-0.385,0.86-0.859c0-0.477-0.386-0.861-0.86-0.861s-0.86,0.387-0.86,0.861
		S157.092,57.783,157.566,57.783"/>
	<path fill="#FFFFFF" d="M157.566,66.818c0.475,0,0.86-0.385,0.86-0.861c0-0.475-0.386-0.859-0.86-0.859s-0.86,0.385-0.86,0.859
		C156.706,66.434,157.092,66.818,157.566,66.818"/>
	<path fill="#FFFFFF" d="M157.566,69.83c0.475,0,0.86-0.387,0.86-0.861c0-0.474-0.386-0.861-0.86-0.861s-0.86,0.389-0.86,0.861
		C156.706,69.443,157.092,69.83,157.566,69.83"/>
	<path fill="#FFFFFF" d="M157.566,72.84c0.475,0,0.86-0.385,0.86-0.859c0-0.477-0.386-0.859-0.86-0.859s-0.86,0.385-0.86,0.859
		S157.092,72.84,157.566,72.84"/>
	<path fill="#FFFFFF" d="M157.566,60.795c0.475,0,0.86-0.385,0.86-0.859c0-0.477-0.386-0.859-0.86-0.859s-0.86,0.385-0.86,0.859
		S157.092,60.795,157.566,60.795"/>
	<path fill="#FFFFFF" d="M157.566,63.807c0.475,0,0.86-0.385,0.86-0.861c0-0.475-0.386-0.857-0.86-0.857s-0.86,0.387-0.86,0.857
		C156.706,63.422,157.092,63.807,157.566,63.807"/>
	<path fill="#FFFFFF" d="M154.555,47.243c0.476,0,0.86-0.385,0.86-0.86c0-0.476-0.385-0.861-0.86-0.861
		c-0.475,0-0.86,0.385-0.86,0.861C153.694,46.858,154.08,47.243,154.555,47.243"/>
	<path fill="#FFFFFF" d="M154.555,50.255c0.476,0,0.86-0.385,0.86-0.86c0-0.476-0.385-0.861-0.86-0.861
		c-0.475,0-0.86,0.385-0.86,0.861C153.694,49.87,154.08,50.255,154.555,50.255"/>
	<path fill="#FFFFFF" d="M154.555,53.266c0.476,0,0.86-0.385,0.86-0.857c0-0.479-0.385-0.861-0.86-0.861
		c-0.475,0-0.86,0.387-0.86,0.861C153.694,52.881,154.08,53.266,154.555,53.266"/>
	<path fill="#FFFFFF" d="M154.555,56.277c0.476,0,0.86-0.385,0.86-0.859c0-0.477-0.385-0.861-0.86-0.861
		c-0.475,0-0.86,0.385-0.86,0.861C153.694,55.893,154.08,56.277,154.555,56.277"/>
	<path fill="#FFFFFF" d="M154.555,44.232c0.476,0,0.86-0.385,0.86-0.86c0-0.476-0.385-0.861-0.86-0.861
		c-0.475,0-0.86,0.385-0.86,0.861C153.694,43.847,154.08,44.232,154.555,44.232"/>
	<path fill="#FFFFFF" d="M154.555,65.312c0.476,0,0.86-0.387,0.86-0.861s-0.385-0.859-0.86-0.859c-0.475,0-0.86,0.385-0.86,0.859
		C153.694,64.928,154.08,65.312,154.555,65.312"/>
	<path fill="#FFFFFF" d="M154.555,68.324c0.476,0,0.86-0.385,0.86-0.861c0-0.475-0.385-0.861-0.86-0.861
		c-0.475,0-0.86,0.389-0.86,0.861C153.694,67.939,154.08,68.324,154.555,68.324"/>
	<path fill="#FFFFFF" d="M154.555,71.334c0.476,0,0.86-0.385,0.86-0.859c0-0.477-0.385-0.859-0.86-0.859
		c-0.475,0-0.86,0.385-0.86,0.859C153.694,70.949,154.08,71.334,154.555,71.334"/>
	<path fill="#FFFFFF" d="M154.555,74.346c0.476,0,0.86-0.385,0.86-0.859c0-0.477-0.385-0.859-0.86-0.859
		c-0.475,0-0.86,0.385-0.86,0.859C153.694,73.961,154.08,74.346,154.555,74.346"/>
	<path fill="#FFFFFF" d="M154.555,59.289c0.476,0,0.86-0.385,0.86-0.859c0-0.477-0.385-0.861-0.86-0.861
		c-0.475,0-0.86,0.387-0.86,0.861C153.694,58.904,154.08,59.289,154.555,59.289"/>
	<path fill="#FFFFFF" d="M154.555,62.301c0.476,0,0.86-0.385,0.86-0.859c0-0.477-0.385-0.859-0.86-0.859
		c-0.475,0-0.86,0.385-0.86,0.859C153.694,61.916,154.08,62.301,154.555,62.301"/>
	<path fill="#FFFFFF" d="M151.544,48.749c0.475,0,0.859-0.385,0.859-0.86c0-0.476-0.385-0.861-0.859-0.861
		c-0.476,0-0.86,0.385-0.86,0.861C150.684,48.364,151.068,48.749,151.544,48.749"/>
	<path fill="#FFFFFF" d="M151.544,51.76c0.475,0,0.859-0.385,0.859-0.859c0-0.476-0.385-0.859-0.859-0.859
		c-0.476,0-0.86,0.385-0.86,0.859S151.068,51.76,151.544,51.76"/>
	<path fill="#FFFFFF" d="M151.544,54.771c0.475,0,0.859-0.387,0.859-0.859c0-0.477-0.385-0.861-0.859-0.861
		c-0.476,0-0.86,0.385-0.86,0.861C150.684,54.387,151.068,54.771,151.544,54.771"/>
	<path fill="#FFFFFF" d="M151.544,57.783c0.475,0,0.859-0.385,0.859-0.859c0-0.477-0.385-0.861-0.859-0.861
		c-0.476,0-0.86,0.387-0.86,0.861S151.068,57.783,151.544,57.783"/>
	<path fill="#FFFFFF" d="M151.544,39.714c0.475,0,0.859-0.385,0.859-0.86c0-0.476-0.385-0.861-0.859-0.861
		c-0.476,0-0.86,0.385-0.86,0.861S151.068,39.714,151.544,39.714"/>
	<path fill="#FFFFFF" d="M151.544,36.703c0.475,0,0.859-0.385,0.859-0.86c0-0.476-0.385-0.861-0.859-0.861
		c-0.476,0-0.86,0.385-0.86,0.861C150.684,36.318,151.068,36.703,151.544,36.703"/>
	<path fill="#FFFFFF" d="M151.544,42.726c0.475,0,0.859-0.385,0.859-0.86c0-0.476-0.385-0.861-0.859-0.861
		c-0.476,0-0.86,0.385-0.86,0.861C150.684,42.341,151.068,42.726,151.544,42.726"/>
	<path fill="#FFFFFF" d="M151.544,45.738c0.475,0,0.859-0.385,0.859-0.86c0-0.476-0.385-0.861-0.859-0.861
		c-0.476,0-0.86,0.385-0.86,0.861C150.684,45.353,151.068,45.738,151.544,45.738"/>
	<path fill="#FFFFFF" d="M151.544,66.818c0.475,0,0.859-0.385,0.859-0.861c0-0.475-0.385-0.859-0.859-0.859
		c-0.476,0-0.86,0.385-0.86,0.859C150.684,66.434,151.068,66.818,151.544,66.818"/>
	<path fill="#FFFFFF" d="M151.544,69.83c0.475,0,0.859-0.387,0.859-0.861c0-0.474-0.385-0.861-0.859-0.861
		c-0.476,0-0.86,0.389-0.86,0.861C150.684,69.443,151.068,69.83,151.544,69.83"/>
	<path fill="#FFFFFF" d="M151.544,72.84c0.475,0,0.859-0.385,0.859-0.859c0-0.477-0.385-0.859-0.859-0.859
		c-0.476,0-0.86,0.385-0.86,0.859S151.068,72.84,151.544,72.84"/>
	<path fill="#FFFFFF" d="M151.544,60.795c0.475,0,0.859-0.385,0.859-0.859c0-0.477-0.385-0.859-0.859-0.859
		c-0.476,0-0.86,0.385-0.86,0.859S151.068,60.795,151.544,60.795"/>
	<path fill="#FFFFFF" d="M151.544,63.807c0.475,0,0.859-0.385,0.859-0.861c0-0.475-0.385-0.857-0.859-0.857
		c-0.476,0-0.86,0.387-0.86,0.857C150.684,63.422,151.068,63.807,151.544,63.807"/>
	<path fill="#FFFFFF" d="M148.532,47.243c0.475,0,0.859-0.385,0.859-0.86c0-0.476-0.385-0.861-0.859-0.861
		c-0.476,0-0.86,0.385-0.86,0.861C147.672,46.858,148.057,47.243,148.532,47.243"/>
	<path fill="#FFFFFF" d="M148.532,50.255c0.475,0,0.859-0.385,0.859-0.86c0-0.476-0.385-0.861-0.859-0.861
		c-0.476,0-0.86,0.385-0.86,0.861C147.672,49.87,148.057,50.255,148.532,50.255"/>
	<path fill="#FFFFFF" d="M148.532,53.266c0.475,0,0.859-0.385,0.859-0.857c0-0.479-0.385-0.861-0.859-0.861
		c-0.476,0-0.86,0.387-0.86,0.861C147.672,52.881,148.057,53.266,148.532,53.266"/>
	<path fill="#FFFFFF" d="M148.532,56.277c0.475,0,0.859-0.385,0.859-0.859c0-0.477-0.385-0.861-0.859-0.861
		c-0.476,0-0.86,0.385-0.86,0.861C147.672,55.893,148.057,56.277,148.532,56.277"/>
	<path fill="#FFFFFF" d="M148.532,38.209c0.475,0,0.859-0.385,0.859-0.86c0-0.476-0.385-0.861-0.859-0.861
		c-0.476,0-0.86,0.385-0.86,0.861C147.672,37.824,148.057,38.209,148.532,38.209"/>
	<path fill="#FFFFFF" d="M148.532,41.22c0.475,0,0.859-0.385,0.859-0.86c0-0.476-0.385-0.861-0.859-0.861
		c-0.476,0-0.86,0.385-0.86,0.861C147.672,40.835,148.057,41.22,148.532,41.22"/>
	<path fill="#FFFFFF" d="M148.532,44.232c0.475,0,0.859-0.385,0.859-0.86c0-0.476-0.385-0.861-0.859-0.861
		c-0.476,0-0.86,0.385-0.86,0.861C147.672,43.847,148.057,44.232,148.532,44.232"/>
	<path fill="#FFFFFF" d="M148.532,65.312c0.475,0,0.859-0.387,0.859-0.861s-0.385-0.859-0.859-0.859c-0.476,0-0.86,0.385-0.86,0.859
		C147.672,64.928,148.057,65.312,148.532,65.312"/>
	<path fill="#FFFFFF" d="M148.532,68.324c0.475,0,0.859-0.385,0.859-0.861c0-0.475-0.385-0.861-0.859-0.861
		c-0.476,0-0.86,0.389-0.86,0.861C147.672,67.939,148.057,68.324,148.532,68.324"/>
	<path fill="#FFFFFF" d="M148.532,71.334c0.475,0,0.859-0.385,0.859-0.859c0-0.477-0.385-0.859-0.859-0.859
		c-0.476,0-0.86,0.385-0.86,0.859S148.057,71.334,148.532,71.334"/>
	<path fill="#FFFFFF" d="M148.532,74.346c0.475,0,0.859-0.385,0.859-0.859c0-0.477-0.385-0.859-0.859-0.859
		c-0.476,0-0.86,0.385-0.86,0.859S148.057,74.346,148.532,74.346"/>
	<path fill="#FFFFFF" d="M148.532,59.289c0.475,0,0.859-0.385,0.859-0.859c0-0.477-0.385-0.861-0.859-0.861
		c-0.476,0-0.86,0.387-0.86,0.861S148.057,59.289,148.532,59.289"/>
	<path fill="#FFFFFF" d="M148.532,62.301c0.475,0,0.859-0.385,0.859-0.859c0-0.477-0.385-0.859-0.859-0.859
		c-0.476,0-0.86,0.385-0.86,0.859S148.057,62.301,148.532,62.301"/>
	<path fill="#FFFFFF" d="M145.521,48.749c0.475,0,0.859-0.385,0.859-0.86c0-0.476-0.385-0.861-0.859-0.861
		c-0.476,0-0.86,0.385-0.86,0.861C144.66,48.364,145.045,48.749,145.521,48.749"/>
	<path fill="#FFFFFF" d="M145.521,51.76c0.475,0,0.859-0.385,0.859-0.859c0-0.476-0.385-0.859-0.859-0.859
		c-0.476,0-0.86,0.385-0.86,0.859C144.66,51.375,145.045,51.76,145.521,51.76"/>
	<path fill="#FFFFFF" d="M145.521,54.771c0.475,0,0.859-0.387,0.859-0.859c0-0.477-0.385-0.861-0.859-0.861
		c-0.476,0-0.86,0.385-0.86,0.861C144.66,54.387,145.045,54.771,145.521,54.771"/>
	<path fill="#FFFFFF" d="M145.521,57.783c0.475,0,0.859-0.385,0.859-0.859c0-0.477-0.385-0.861-0.859-0.861
		c-0.476,0-0.86,0.387-0.86,0.861C144.66,57.398,145.045,57.783,145.521,57.783"/>
	<path fill="#FFFFFF" d="M145.521,39.714c0.475,0,0.859-0.385,0.859-0.86c0-0.476-0.385-0.861-0.859-0.861
		c-0.476,0-0.86,0.385-0.86,0.861C144.66,39.33,145.045,39.714,145.521,39.714"/>
	<path fill="#FFFFFF" d="M145.521,36.703c0.475,0,0.859-0.385,0.859-0.86c0-0.476-0.385-0.861-0.859-0.861
		c-0.476,0-0.86,0.385-0.86,0.861C144.66,36.318,145.045,36.703,145.521,36.703"/>
	<path fill="#FFFFFF" d="M145.521,42.726c0.475,0,0.859-0.385,0.859-0.86c0-0.476-0.385-0.861-0.859-0.861
		c-0.476,0-0.86,0.385-0.86,0.861C144.66,42.341,145.045,42.726,145.521,42.726"/>
	<path fill="#FFFFFF" d="M145.521,45.738c0.475,0,0.859-0.385,0.859-0.86c0-0.476-0.385-0.861-0.859-0.861
		c-0.476,0-0.86,0.385-0.86,0.861C144.66,45.353,145.045,45.738,145.521,45.738"/>
	<path fill="#FFFFFF" d="M145.521,66.818c0.475,0,0.859-0.385,0.859-0.861c0-0.475-0.385-0.859-0.859-0.859
		c-0.476,0-0.86,0.385-0.86,0.859C144.66,66.434,145.045,66.818,145.521,66.818"/>
	<path fill="#FFFFFF" d="M145.521,69.83c0.475,0,0.859-0.387,0.859-0.861c0-0.474-0.385-0.861-0.859-0.861
		c-0.476,0-0.86,0.389-0.86,0.861C144.661,69.443,145.045,69.83,145.521,69.83"/>
	<path fill="#FFFFFF" d="M145.521,72.84c0.475,0,0.859-0.385,0.859-0.859c0-0.477-0.385-0.859-0.859-0.859
		c-0.476,0-0.86,0.385-0.86,0.859C144.66,72.455,145.045,72.84,145.521,72.84"/>
	<path fill="#FFFFFF" d="M145.521,60.795c0.475,0,0.859-0.385,0.859-0.859c0-0.477-0.385-0.859-0.859-0.859
		c-0.476,0-0.86,0.385-0.86,0.859C144.66,60.41,145.045,60.795,145.521,60.795"/>
	<path fill="#FFFFFF" d="M145.521,63.807c0.475,0,0.859-0.385,0.859-0.861c0-0.475-0.385-0.857-0.859-0.857
		c-0.476,0-0.86,0.387-0.86,0.857C144.66,63.422,145.045,63.807,145.521,63.807"/>
	<path fill="#FFFFFF" d="M142.509,47.243c0.475,0,0.86-0.385,0.86-0.86c0-0.476-0.386-0.861-0.86-0.861
		c-0.474,0-0.86,0.385-0.86,0.861C141.648,46.858,142.034,47.243,142.509,47.243"/>
	<path fill="#FFFFFF" d="M142.509,50.255c0.475,0,0.86-0.385,0.86-0.86c0-0.476-0.386-0.861-0.86-0.861
		c-0.474,0-0.86,0.385-0.86,0.861C141.648,49.87,142.034,50.255,142.509,50.255"/>
	<path fill="#FFFFFF" d="M142.509,53.266c0.475,0,0.86-0.385,0.86-0.857c0-0.479-0.386-0.861-0.86-0.861
		c-0.474,0-0.86,0.387-0.86,0.861C141.648,52.881,142.034,53.266,142.509,53.266"/>
	<path fill="#FFFFFF" d="M142.509,56.277c0.475,0,0.86-0.385,0.86-0.859c0-0.477-0.386-0.861-0.86-0.861
		c-0.474,0-0.86,0.385-0.86,0.861C141.648,55.893,142.034,56.277,142.509,56.277"/>
	<path fill="#FFFFFF" d="M142.509,38.209c0.475,0,0.86-0.385,0.86-0.86c0-0.476-0.386-0.861-0.86-0.861
		c-0.474,0-0.86,0.385-0.86,0.861C141.648,37.824,142.034,38.209,142.509,38.209"/>
	<path fill="#FFFFFF" d="M142.509,41.22c0.475,0,0.86-0.385,0.86-0.86c0-0.476-0.386-0.861-0.86-0.861
		c-0.474,0-0.86,0.385-0.86,0.861C141.648,40.835,142.034,41.22,142.509,41.22"/>
	<path fill="#FFFFFF" d="M142.509,44.232c0.475,0,0.86-0.385,0.86-0.86c0-0.476-0.386-0.861-0.86-0.861
		c-0.474,0-0.86,0.385-0.86,0.861C141.648,43.847,142.034,44.232,142.509,44.232"/>
	<path fill="#FFFFFF" d="M142.509,65.312c0.475,0,0.86-0.387,0.86-0.861s-0.386-0.859-0.86-0.859c-0.474,0-0.86,0.385-0.86,0.859
		C141.648,64.928,142.034,65.312,142.509,65.312"/>
	<path fill="#FFFFFF" d="M142.509,68.324c0.475,0,0.86-0.385,0.86-0.861c0-0.475-0.386-0.861-0.86-0.861
		c-0.474,0-0.86,0.389-0.86,0.861C141.648,67.939,142.034,68.324,142.509,68.324"/>
	<path fill="#FFFFFF" d="M142.509,71.334c0.475,0,0.86-0.385,0.86-0.859c0-0.477-0.386-0.859-0.86-0.859
		c-0.474,0-0.86,0.385-0.86,0.859C141.648,70.949,142.034,71.334,142.509,71.334"/>
	<path fill="#FFFFFF" d="M142.509,74.346c0.475,0,0.86-0.385,0.86-0.859c0-0.477-0.386-0.859-0.86-0.859
		c-0.474,0-0.86,0.385-0.86,0.859C141.648,73.961,142.034,74.346,142.509,74.346"/>
	<path fill="#FFFFFF" d="M142.509,59.289c0.475,0,0.86-0.385,0.86-0.859c0-0.477-0.386-0.861-0.86-0.861
		c-0.474,0-0.86,0.387-0.86,0.861C141.648,58.904,142.034,59.289,142.509,59.289"/>
	<path fill="#FFFFFF" d="M142.509,62.301c0.475,0,0.86-0.385,0.86-0.859c0-0.477-0.386-0.859-0.86-0.859
		c-0.474,0-0.86,0.385-0.86,0.859C141.648,61.916,142.034,62.301,142.509,62.301"/>
	<path fill="#FFFFFF" d="M139.497,48.749c0.476,0,0.86-0.385,0.86-0.86c0-0.476-0.385-0.861-0.86-0.861s-0.859,0.385-0.859,0.861
		C138.638,48.364,139.022,48.749,139.497,48.749"/>
	<path fill="#FFFFFF" d="M139.497,51.76c0.476,0,0.86-0.385,0.86-0.859c0-0.476-0.385-0.859-0.86-0.859s-0.859,0.385-0.859,0.859
		S139.022,51.76,139.497,51.76"/>
	<path fill="#FFFFFF" d="M139.497,54.771c0.476,0,0.86-0.387,0.86-0.859c0-0.477-0.385-0.861-0.86-0.861s-0.859,0.385-0.859,0.861
		C138.638,54.387,139.022,54.771,139.497,54.771"/>
	<path fill="#FFFFFF" d="M139.497,57.783c0.476,0,0.86-0.385,0.86-0.859c0-0.477-0.385-0.861-0.86-0.861s-0.859,0.387-0.859,0.861
		S139.022,57.783,139.497,57.783"/>
	<path fill="#FFFFFF" d="M139.497,45.738c0.476,0,0.86-0.385,0.86-0.86c0-0.476-0.385-0.861-0.86-0.861s-0.859,0.385-0.859,0.861
		C138.638,45.353,139.022,45.738,139.497,45.738"/>
	<path fill="#FFFFFF" d="M139.497,66.818c0.476,0,0.86-0.385,0.86-0.861c0-0.475-0.385-0.859-0.86-0.859s-0.859,0.385-0.859,0.859
		C138.638,66.434,139.022,66.818,139.497,66.818"/>
	<path fill="#FFFFFF" d="M139.497,69.83c0.476,0,0.86-0.387,0.86-0.861c0-0.474-0.385-0.861-0.86-0.861s-0.859,0.389-0.859,0.861
		C138.638,69.443,139.022,69.83,139.497,69.83"/>
	<path fill="#FFFFFF" d="M139.497,72.84c0.476,0,0.86-0.385,0.86-0.859c0-0.477-0.385-0.859-0.86-0.859s-0.859,0.385-0.859,0.859
		S139.022,72.84,139.497,72.84"/>
	<path fill="#FFFFFF" d="M139.497,60.795c0.476,0,0.86-0.385,0.86-0.859c0-0.477-0.385-0.859-0.86-0.859s-0.859,0.385-0.859,0.859
		S139.022,60.795,139.497,60.795"/>
	<path fill="#FFFFFF" d="M139.497,63.807c0.476,0,0.86-0.385,0.86-0.861c0-0.475-0.385-0.857-0.86-0.857s-0.859,0.387-0.859,0.857
		C138.638,63.422,139.022,63.807,139.497,63.807"/>
	<path fill="#FFFFFF" d="M136.486,47.243c0.475,0,0.859-0.385,0.859-0.86c0-0.476-0.385-0.861-0.859-0.861
		c-0.476,0-0.86,0.385-0.86,0.861C135.626,46.858,136.011,47.243,136.486,47.243"/>
	<path fill="#FFFFFF" d="M136.486,50.255c0.475,0,0.859-0.385,0.859-0.86c0-0.476-0.385-0.861-0.859-0.861
		c-0.476,0-0.86,0.385-0.86,0.861C135.626,49.87,136.011,50.255,136.486,50.255"/>
	<path fill="#FFFFFF" d="M136.486,53.266c0.475,0,0.859-0.385,0.859-0.857c0-0.479-0.385-0.861-0.859-0.861
		c-0.476,0-0.86,0.387-0.86,0.861C135.626,52.881,136.011,53.266,136.486,53.266"/>
	<path fill="#FFFFFF" d="M136.486,56.277c0.475,0,0.859-0.385,0.859-0.859c0-0.477-0.385-0.861-0.859-0.861
		c-0.476,0-0.86,0.385-0.86,0.861C135.626,55.893,136.011,56.277,136.486,56.277"/>
	<path fill="#FFFFFF" d="M136.486,65.312c0.475,0,0.859-0.387,0.859-0.861s-0.385-0.859-0.859-0.859c-0.476,0-0.86,0.385-0.86,0.859
		C135.626,64.928,136.011,65.312,136.486,65.312"/>
	<path fill="#FFFFFF" d="M136.486,68.324c0.475,0,0.859-0.385,0.859-0.861c0-0.475-0.385-0.861-0.859-0.861
		c-0.476,0-0.86,0.389-0.86,0.861C135.626,67.939,136.011,68.324,136.486,68.324"/>
	<path fill="#FFFFFF" d="M136.486,71.334c0.475,0,0.859-0.385,0.859-0.859c0-0.477-0.385-0.859-0.859-0.859
		c-0.476,0-0.86,0.385-0.86,0.859S136.011,71.334,136.486,71.334"/>
	<path fill="#FFFFFF" d="M136.486,74.346c0.475,0,0.859-0.385,0.859-0.859c0-0.477-0.385-0.859-0.859-0.859
		c-0.476,0-0.86,0.385-0.86,0.859S136.011,74.346,136.486,74.346"/>
	<path fill="#FFFFFF" d="M136.486,59.289c0.475,0,0.859-0.385,0.859-0.859c0-0.477-0.385-0.861-0.859-0.861
		c-0.476,0-0.86,0.387-0.86,0.861S136.011,59.289,136.486,59.289"/>
	<path fill="#FFFFFF" d="M136.486,62.301c0.475,0,0.859-0.385,0.859-0.859c0-0.477-0.385-0.859-0.859-0.859
		c-0.476,0-0.86,0.385-0.86,0.859S136.011,62.301,136.486,62.301"/>
	<path fill="#FFFFFF" d="M133.475,48.749c0.475,0,0.86-0.385,0.86-0.86c0-0.476-0.386-0.861-0.86-0.861
		c-0.476,0-0.86,0.385-0.86,0.861C132.614,48.364,132.999,48.749,133.475,48.749"/>
	<path fill="#FFFFFF" d="M133.475,51.76c0.475,0,0.86-0.385,0.86-0.859c0-0.476-0.386-0.859-0.86-0.859
		c-0.476,0-0.86,0.385-0.86,0.859C132.614,51.375,132.999,51.76,133.475,51.76"/>
	<path fill="#FFFFFF" d="M133.475,54.771c0.475,0,0.86-0.387,0.86-0.859c0-0.477-0.386-0.861-0.86-0.861
		c-0.476,0-0.86,0.385-0.86,0.861C132.614,54.387,132.999,54.771,133.475,54.771"/>
	<path fill="#FFFFFF" d="M133.475,57.783c0.475,0,0.86-0.385,0.86-0.859c0-0.477-0.386-0.861-0.86-0.861
		c-0.476,0-0.86,0.387-0.86,0.861C132.614,57.398,132.999,57.783,133.475,57.783"/>
	<path fill="#FFFFFF" d="M133.475,66.818c0.475,0,0.86-0.385,0.86-0.861c0-0.475-0.386-0.859-0.86-0.859
		c-0.476,0-0.86,0.385-0.86,0.859C132.614,66.434,132.999,66.818,133.475,66.818"/>
	<path fill="#FFFFFF" d="M133.475,69.83c0.475,0,0.86-0.387,0.86-0.861c0-0.474-0.386-0.861-0.86-0.861
		c-0.476,0-0.86,0.389-0.86,0.861C132.615,69.443,132.999,69.83,133.475,69.83"/>
	<path fill="#FFFFFF" d="M133.475,72.84c0.475,0,0.86-0.385,0.86-0.859c0-0.477-0.386-0.859-0.86-0.859
		c-0.476,0-0.86,0.385-0.86,0.859C132.614,72.455,132.999,72.84,133.475,72.84"/>
	<path fill="#FFFFFF" d="M133.475,60.795c0.475,0,0.86-0.385,0.86-0.859c0-0.477-0.386-0.859-0.86-0.859
		c-0.476,0-0.86,0.385-0.86,0.859C132.614,60.41,132.999,60.795,133.475,60.795"/>
	<path fill="#FFFFFF" d="M133.475,63.807c0.475,0,0.86-0.385,0.86-0.861c0-0.475-0.386-0.857-0.86-0.857
		c-0.476,0-0.86,0.387-0.86,0.857C132.614,63.422,132.999,63.807,133.475,63.807"/>
	<path fill="#2B2622" d="M152.744,57.002h-11.436c-0.583,0-1.082,0.418-1.184,0.992l-1.603,9.059
		c-0.062,0.35,0.035,0.709,0.264,0.98c0.228,0.273,0.565,0.43,0.921,0.43h14.639c0.007,0.002,0.013,0.002,0.016,0
		c0.664,0,1.201-0.537,1.201-1.201c0-0.141-0.022-0.275-0.066-0.4l-1.568-8.865C153.826,57.42,153.327,57.002,152.744,57.002
		 M141.139,66.061l1.177-6.656h9.421l1.178,6.656H141.139z"/>
	<path fill="#2B2622" d="M178.783,35.661c-0.59-1.393-2.767-3.637-6.786-2.144c-2.798,1.04-3.151,3.513-3.465,5.695
		c-0.199,1.39-0.404,2.828-1.189,4.023c-1.015,1.546-4.452,1.874-5.756,1.874c-0.021,0-0.039,0-0.058,0
		c-0.589-0.09-5.981-1.026-5.981-4.975v-5.49V30.64c0-0.036-0.002-0.072-0.006-0.108c-0.231-2.554-2.311-7.383-8.517-7.383
		c-6.205,0-8.283,4.829-8.516,7.383c-0.003,0.036-0.004,0.072-0.004,0.108v4.004v5.49c0,4.132-5.985,4.976-6.044,4.984
		c-0.009,0.001-0.016,0.006-0.023,0.007c-0.018,0.003-0.036,0.002-0.054,0.005c-0.1,0.019-0.213,0.032-0.341,0.048
		c-1.098,0.137-3.383,0.422-5.169,3.636c-0.709,1.277-0.851,2.722-1.001,4.25c-0.147,1.506-0.301,3.062-0.993,4.66
		c-0.983,2.267-3.039,1.752-3.444,1.623c-0.629-0.205-1.304,0.137-1.512,0.764c-0.209,0.63,0.131,1.31,0.76,1.521
		c0.439,0.146,1.023,0.257,1.669,0.257c1.626,0,3.641-0.69,4.731-3.205c0.843-1.947,1.022-3.771,1.181-5.382
		c0.131-1.329,0.244-2.479,0.711-3.32c0.827-1.489,1.684-2.02,2.438-2.244v26.708c0,0.664,0.538,1.201,1.201,1.201h28.821
		c0.664,0,1.202-0.537,1.202-1.201V47.476c1.857-0.129,5.239-0.676,6.713-2.92c1.079-1.644,1.335-3.427,1.56-5.001
		c0.306-2.13,0.529-3.265,1.924-3.783c2.723-1.01,3.597,0.527,3.736,0.829c0.257,0.61,0.959,0.898,1.575,0.637
		C178.758,36.978,179.042,36.271,178.783,35.661 M147.025,25.552c5.312,0,6.038,4.446,6.119,5.152v2.738h-12.236v-2.738
		C140.992,29.98,141.726,25.552,147.025,25.552 M160.235,73.242h-26.418V47.31c2.91-0.668,7.091-2.749,7.091-7.176v-4.289h12.236
		v4.289c0,4.427,4.18,6.508,7.091,7.176V73.242L160.235,73.242z"/>
	<path fill="#FFFFFF" d="M249.636,28.78c0-0.475-0.385-0.86-0.86-0.86s-0.86,0.385-0.86,0.86c0,0.475,0.385,0.86,0.86,0.86
		S249.636,29.255,249.636,28.78"/>
	<path fill="#FFFFFF" d="M248.13,31.792c0-0.475-0.385-0.86-0.859-0.86c-0.477,0-0.861,0.385-0.861,0.86s0.385,0.86,0.861,0.86
		C247.746,32.651,248.13,32.267,248.13,31.792"/>
	<path fill="#FFFFFF" d="M251.142,31.792c0-0.475-0.385-0.86-0.86-0.86c-0.475,0-0.86,0.385-0.86,0.86s0.385,0.86,0.86,0.86
		C250.757,32.652,251.142,32.267,251.142,31.792"/>
	<path fill="#FFFFFF" d="M246.625,34.803c0-0.475-0.385-0.86-0.859-0.86c-0.477,0-0.861,0.385-0.861,0.86
		c0,0.475,0.385,0.86,0.861,0.86C246.24,35.663,246.625,35.278,246.625,34.803"/>
	<path fill="#FFFFFF" d="M249.636,34.803c0-0.475-0.385-0.86-0.86-0.86s-0.86,0.385-0.86,0.86c0,0.475,0.385,0.86,0.86,0.86
		S249.636,35.278,249.636,34.803"/>
	<path fill="#FFFFFF" d="M252.648,34.803c0-0.475-0.385-0.86-0.86-0.86s-0.86,0.385-0.86,0.86c0,0.475,0.385,0.86,0.86,0.86
		S252.648,35.278,252.648,34.803"/>
	<path fill="#FFFFFF" d="M245.119,37.814c0-0.475-0.385-0.86-0.859-0.86c-0.477,0-0.861,0.385-0.861,0.86s0.385,0.86,0.861,0.86
		C244.734,38.675,245.119,38.29,245.119,37.814"/>
	<path fill="#FFFFFF" d="M248.13,37.814c0-0.475-0.385-0.86-0.859-0.86c-0.477,0-0.861,0.385-0.861,0.86s0.385,0.86,0.861,0.86
		C247.746,38.675,248.13,38.29,248.13,37.814"/>
	<path fill="#FFFFFF" d="M251.142,37.814c0-0.475-0.385-0.86-0.86-0.86c-0.475,0-0.86,0.385-0.86,0.86s0.385,0.86,0.86,0.86
		C250.757,38.674,251.142,38.29,251.142,37.814"/>
	<path fill="#FFFFFF" d="M254.154,37.814c0-0.475-0.385-0.86-0.86-0.86s-0.86,0.385-0.86,0.86s0.385,0.86,0.86,0.86
		S254.154,38.29,254.154,37.814"/>
	<path fill="#FFFFFF" d="M243.614,40.826c0-0.475-0.386-0.86-0.86-0.86c-0.477,0-0.861,0.385-0.861,0.86
		c0,0.475,0.385,0.86,0.861,0.86C243.228,41.686,243.614,41.301,243.614,40.826"/>
	<path fill="#FFFFFF" d="M246.625,40.826c0-0.475-0.385-0.86-0.859-0.86c-0.477,0-0.861,0.385-0.861,0.86
		c0,0.475,0.385,0.86,0.861,0.86C246.24,41.686,246.625,41.301,246.625,40.826"/>
	<path fill="#FFFFFF" d="M249.636,40.826c0-0.475-0.385-0.86-0.86-0.86s-0.86,0.385-0.86,0.86c0,0.475,0.385,0.86,0.86,0.86
		S249.636,41.301,249.636,40.826"/>
	<path fill="#FFFFFF" d="M252.648,40.826c0-0.475-0.385-0.86-0.86-0.86s-0.86,0.385-0.86,0.86c0,0.475,0.385,0.86,0.86,0.86
		S252.648,41.301,252.648,40.826"/>
	<path fill="#FFFFFF" d="M255.66,40.826c0-0.475-0.385-0.86-0.86-0.86c-0.475,0-0.861,0.385-0.861,0.86
		c0,0.475,0.386,0.86,0.861,0.86C255.275,41.686,255.66,41.301,255.66,40.826"/>
	<path fill="#FFFFFF" d="M242.108,43.837c0-0.475-0.386-0.86-0.86-0.86c-0.476,0-0.861,0.385-0.861,0.86s0.386,0.86,0.861,0.86
		C241.722,44.698,242.108,44.312,242.108,43.837"/>
	<path fill="#FFFFFF" d="M245.119,43.837c0-0.475-0.385-0.86-0.859-0.86c-0.477,0-0.861,0.385-0.861,0.86s0.385,0.86,0.861,0.86
		C244.734,44.698,245.119,44.312,245.119,43.837"/>
	<path fill="#FFFFFF" d="M248.13,43.837c0-0.475-0.385-0.86-0.859-0.86c-0.477,0-0.861,0.385-0.861,0.86s0.385,0.86,0.861,0.86
		C247.746,44.698,248.13,44.312,248.13,43.837"/>
	<path fill="#FFFFFF" d="M257.166,43.837c0-0.475-0.386-0.86-0.86-0.86c-0.477,0-0.861,0.385-0.861,0.86s0.385,0.86,0.861,0.86
		C256.78,44.698,257.166,44.312,257.166,43.837"/>
	<path fill="#FFFFFF" d="M251.142,43.837c0-0.475-0.385-0.86-0.86-0.86c-0.475,0-0.86,0.385-0.86,0.86s0.385,0.86,0.86,0.86
		C250.757,44.697,251.142,44.312,251.142,43.837"/>
	<path fill="#FFFFFF" d="M254.154,43.837c0-0.475-0.385-0.86-0.86-0.86s-0.86,0.385-0.86,0.86s0.385,0.86,0.86,0.86
		S254.154,44.312,254.154,43.837"/>
	<path fill="#FFFFFF" d="M240.602,46.849c0-0.475-0.385-0.86-0.86-0.86c-0.475,0-0.86,0.385-0.86,0.86c0,0.476,0.385,0.86,0.86,0.86
		C240.217,47.709,240.602,47.325,240.602,46.849"/>
	<path fill="#FFFFFF" d="M243.614,46.849c0-0.475-0.386-0.86-0.86-0.86c-0.477,0-0.861,0.385-0.861,0.86
		c0,0.476,0.385,0.86,0.861,0.86C243.228,47.709,243.614,47.325,243.614,46.849"/>
	<path fill="#FFFFFF" d="M246.625,46.849c0-0.475-0.385-0.86-0.859-0.86c-0.477,0-0.861,0.385-0.861,0.86
		c0,0.476,0.385,0.86,0.861,0.86C246.24,47.709,246.625,47.325,246.625,46.849"/>
	<path fill="#FFFFFF" d="M249.636,46.849c0-0.475-0.385-0.86-0.86-0.86s-0.86,0.385-0.86,0.86c0,0.476,0.385,0.86,0.86,0.86
		S249.636,47.325,249.636,46.849"/>
	<path fill="#FFFFFF" d="M258.671,46.849c0-0.475-0.386-0.86-0.86-0.86c-0.477,0-0.861,0.385-0.861,0.86
		c0,0.476,0.385,0.86,0.861,0.86C258.286,47.709,258.671,47.325,258.671,46.849"/>
	<path fill="#FFFFFF" d="M252.648,46.849c0-0.475-0.385-0.86-0.86-0.86s-0.86,0.385-0.86,0.86c0,0.476,0.385,0.86,0.86,0.86
		S252.648,47.325,252.648,46.849"/>
	<path fill="#FFFFFF" d="M255.66,46.849c0-0.475-0.385-0.86-0.86-0.86c-0.475,0-0.861,0.385-0.861,0.86
		c0,0.476,0.386,0.86,0.861,0.86C255.275,47.709,255.66,47.325,255.66,46.849"/>
	<path fill="#FFFFFF" d="M239.096,49.86c0-0.475-0.385-0.859-0.86-0.859s-0.86,0.385-0.86,0.859c0,0.476,0.385,0.861,0.86,0.861
		S239.096,50.335,239.096,49.86"/>
	<path fill="#FFFFFF" d="M242.108,49.86c0-0.475-0.386-0.859-0.86-0.859c-0.476,0-0.861,0.385-0.861,0.859
		c0,0.476,0.386,0.861,0.861,0.861C241.722,50.721,242.108,50.335,242.108,49.86"/>
	<path fill="#FFFFFF" d="M245.119,49.86c0-0.475-0.385-0.859-0.859-0.859c-0.477,0-0.861,0.385-0.861,0.859
		c0,0.476,0.385,0.861,0.861,0.861C244.734,50.721,245.119,50.335,245.119,49.86"/>
	<path fill="#FFFFFF" d="M248.13,49.86c0-0.475-0.385-0.859-0.859-0.859c-0.477,0-0.861,0.385-0.861,0.859
		c0,0.476,0.385,0.861,0.861,0.861C247.746,50.721,248.13,50.335,248.13,49.86"/>
	<path fill="#FFFFFF" d="M257.166,49.86c0-0.475-0.386-0.859-0.86-0.859c-0.477,0-0.861,0.385-0.861,0.859
		c0,0.476,0.385,0.861,0.861,0.861C256.78,50.721,257.166,50.335,257.166,49.86"/>
	<path fill="#FFFFFF" d="M260.176,49.86c0-0.475-0.385-0.859-0.859-0.859c-0.477,0-0.861,0.385-0.861,0.859
		c0,0.476,0.385,0.861,0.861,0.861C259.792,50.721,260.176,50.335,260.176,49.86"/>
	<path fill="#FFFFFF" d="M251.142,49.86c0-0.475-0.385-0.859-0.86-0.859c-0.475,0-0.86,0.385-0.86,0.859
		c0,0.476,0.385,0.861,0.86,0.861C250.757,50.721,251.142,50.335,251.142,49.86"/>
	<path fill="#FFFFFF" d="M254.154,49.86c0-0.475-0.385-0.859-0.86-0.859s-0.86,0.385-0.86,0.859c0,0.476,0.385,0.861,0.86,0.861
		S254.154,50.335,254.154,49.86"/>
	<path fill="#FFFFFF" d="M240.602,52.871c0-0.475-0.385-0.859-0.86-0.859c-0.475,0-0.86,0.385-0.86,0.859
		c0,0.477,0.385,0.861,0.86,0.861C240.217,53.732,240.602,53.348,240.602,52.871"/>
	<path fill="#FFFFFF" d="M243.614,52.871c0-0.475-0.386-0.859-0.86-0.859c-0.477,0-0.861,0.385-0.861,0.859
		c0,0.477,0.385,0.861,0.861,0.861C243.228,53.732,243.614,53.348,243.614,52.871"/>
	<path fill="#FFFFFF" d="M246.625,52.871c0-0.475-0.385-0.859-0.859-0.859c-0.477,0-0.861,0.385-0.861,0.859
		c0,0.477,0.385,0.861,0.861,0.861C246.24,53.732,246.625,53.348,246.625,52.871"/>
	<path fill="#FFFFFF" d="M249.636,52.871c0-0.475-0.385-0.859-0.86-0.859s-0.86,0.385-0.86,0.859c0,0.477,0.385,0.861,0.86,0.861
		S249.636,53.348,249.636,52.871"/>
	<path fill="#FFFFFF" d="M237.59,52.871c0-0.475-0.385-0.859-0.86-0.859s-0.86,0.385-0.86,0.859c0,0.477,0.385,0.861,0.86,0.861
		S237.59,53.348,237.59,52.871"/>
	<path fill="#FFFFFF" d="M258.671,52.871c0-0.475-0.386-0.859-0.86-0.859c-0.477,0-0.861,0.385-0.861,0.859
		c0,0.477,0.385,0.861,0.861,0.861C258.286,53.732,258.671,53.348,258.671,52.871"/>
	<path fill="#FFFFFF" d="M261.682,52.871c0-0.475-0.385-0.859-0.86-0.859c-0.475,0-0.86,0.385-0.86,0.859
		c0,0.477,0.385,0.861,0.86,0.861C261.297,53.732,261.682,53.348,261.682,52.871"/>
	<path fill="#FFFFFF" d="M252.648,52.871c0-0.475-0.385-0.859-0.86-0.859s-0.86,0.385-0.86,0.859c0,0.477,0.385,0.861,0.86,0.861
		S252.648,53.348,252.648,52.871"/>
	<path fill="#FFFFFF" d="M255.66,52.871c0-0.475-0.385-0.859-0.86-0.859c-0.475,0-0.861,0.385-0.861,0.859
		c0,0.477,0.386,0.861,0.861,0.861C255.275,53.732,255.66,53.348,255.66,52.871"/>
	<path fill="#FFFFFF" d="M239.096,55.883c0-0.475-0.385-0.859-0.86-0.859s-0.86,0.387-0.86,0.859c0,0.475,0.385,0.861,0.86,0.861
		S239.096,56.357,239.096,55.883"/>
	<path fill="#FFFFFF" d="M242.108,55.883c0-0.475-0.386-0.859-0.86-0.859c-0.476,0-0.861,0.387-0.861,0.859
		c0,0.475,0.386,0.861,0.861,0.861C241.722,56.744,242.108,56.357,242.108,55.883"/>
	<path fill="#FFFFFF" d="M245.119,55.883c0-0.475-0.385-0.859-0.859-0.859c-0.477,0-0.861,0.387-0.861,0.859
		c0,0.475,0.385,0.861,0.861,0.861C244.734,56.744,245.119,56.357,245.119,55.883"/>
	<path fill="#FFFFFF" d="M248.13,55.883c0-0.475-0.385-0.859-0.859-0.859c-0.477,0-0.861,0.387-0.861,0.859
		c0,0.475,0.385,0.861,0.861,0.861C247.746,56.744,248.13,56.357,248.13,55.883"/>
	<path fill="#FFFFFF" d="M236.084,55.883c0-0.475-0.385-0.859-0.859-0.859c-0.477,0-0.861,0.387-0.861,0.859
		c0,0.475,0.385,0.861,0.861,0.861C235.7,56.744,236.084,56.357,236.084,55.883"/>
	<path fill="#FFFFFF" d="M257.166,55.883c0-0.475-0.386-0.859-0.86-0.859c-0.477,0-0.861,0.387-0.861,0.859
		c0,0.475,0.385,0.861,0.861,0.861C256.78,56.744,257.166,56.357,257.166,55.883"/>
	<path fill="#FFFFFF" d="M260.176,55.883c0-0.475-0.385-0.859-0.859-0.859c-0.477,0-0.861,0.387-0.861,0.859
		c0,0.475,0.385,0.861,0.861,0.861C259.792,56.744,260.176,56.357,260.176,55.883"/>
	<path fill="#FFFFFF" d="M263.188,55.883c0-0.475-0.385-0.859-0.86-0.859c-0.475,0-0.86,0.387-0.86,0.859
		c0,0.475,0.385,0.861,0.86,0.861S263.188,56.357,263.188,55.883"/>
	<path fill="#FFFFFF" d="M251.142,55.883c0-0.475-0.385-0.859-0.86-0.859c-0.475,0-0.86,0.387-0.86,0.859
		c0,0.475,0.385,0.861,0.86,0.861C250.757,56.744,251.142,56.357,251.142,55.883"/>
	<path fill="#FFFFFF" d="M254.154,55.883c0-0.475-0.385-0.859-0.86-0.859s-0.86,0.387-0.86,0.859c0,0.475,0.385,0.861,0.86,0.861
		S254.154,56.357,254.154,55.883"/>
	<path fill="#FFFFFF" d="M240.602,58.895c0-0.475-0.385-0.857-0.86-0.857c-0.475,0-0.86,0.385-0.86,0.857
		c0,0.476,0.385,0.859,0.86,0.859C240.217,59.754,240.602,59.369,240.602,58.895"/>
	<path fill="#FFFFFF" d="M243.614,58.895c0-0.475-0.386-0.857-0.86-0.857c-0.477,0-0.861,0.385-0.861,0.857
		c0,0.476,0.385,0.859,0.861,0.859C243.228,59.754,243.614,59.369,243.614,58.895"/>
	<path fill="#FFFFFF" d="M246.625,58.895c0-0.475-0.385-0.857-0.859-0.857c-0.477,0-0.861,0.385-0.861,0.857
		c0,0.476,0.385,0.859,0.861,0.859C246.24,59.754,246.625,59.369,246.625,58.895"/>
	<path fill="#FFFFFF" d="M249.636,58.895c0-0.475-0.385-0.857-0.86-0.857s-0.86,0.385-0.86,0.857c0,0.476,0.385,0.859,0.86,0.859
		S249.636,59.369,249.636,58.895"/>
	<path fill="#FFFFFF" d="M234.579,58.895c0-0.475-0.385-0.857-0.859-0.857c-0.477,0-0.861,0.385-0.861,0.857
		c0,0.476,0.385,0.859,0.861,0.859C234.194,59.754,234.579,59.369,234.579,58.895"/>
	<path fill="#FFFFFF" d="M237.59,58.895c0-0.475-0.385-0.857-0.86-0.857s-0.86,0.385-0.86,0.857c0,0.476,0.385,0.859,0.86,0.859
		S237.59,59.369,237.59,58.895"/>
	<path fill="#FFFFFF" d="M258.671,58.895c0-0.475-0.386-0.857-0.86-0.857c-0.477,0-0.861,0.385-0.861,0.857
		c0,0.476,0.385,0.859,0.861,0.859C258.286,59.754,258.671,59.369,258.671,58.895"/>
	<path fill="#FFFFFF" d="M261.682,58.895c0-0.475-0.385-0.857-0.86-0.857c-0.475,0-0.86,0.385-0.86,0.857
		c0,0.476,0.385,0.859,0.86,0.859C261.297,59.754,261.682,59.369,261.682,58.895"/>
	<path fill="#FFFFFF" d="M264.694,58.895c0-0.475-0.385-0.857-0.86-0.857s-0.86,0.385-0.86,0.857c0,0.476,0.385,0.859,0.86,0.859
		S264.694,59.369,264.694,58.895"/>
	<path fill="#FFFFFF" d="M252.648,58.895c0-0.475-0.385-0.857-0.86-0.857s-0.86,0.385-0.86,0.857c0,0.476,0.385,0.859,0.86,0.859
		S252.648,59.369,252.648,58.895"/>
	<path fill="#FFFFFF" d="M255.66,58.895c0-0.475-0.385-0.857-0.86-0.857c-0.475,0-0.861,0.385-0.861,0.857
		c0,0.476,0.386,0.859,0.861,0.859C255.275,59.754,255.66,59.369,255.66,58.895"/>
	<path fill="#FFFFFF" d="M239.096,61.906c0-0.475-0.385-0.859-0.86-0.859s-0.86,0.385-0.86,0.859c0,0.474,0.385,0.859,0.86,0.859
		S239.096,62.381,239.096,61.906"/>
	<path fill="#FFFFFF" d="M242.108,61.906c0-0.475-0.386-0.859-0.86-0.859c-0.476,0-0.861,0.385-0.861,0.859
		c0,0.474,0.386,0.859,0.861,0.859C241.722,62.766,242.108,62.381,242.108,61.906"/>
	<path fill="#FFFFFF" d="M245.119,61.906c0-0.475-0.385-0.859-0.859-0.859c-0.477,0-0.861,0.385-0.861,0.859
		c0,0.474,0.385,0.859,0.861,0.859C244.734,62.766,245.119,62.381,245.119,61.906"/>
	<path fill="#FFFFFF" d="M248.13,61.906c0-0.475-0.385-0.859-0.859-0.859c-0.477,0-0.861,0.385-0.861,0.859
		c0,0.474,0.385,0.859,0.861,0.859C247.746,62.766,248.13,62.381,248.13,61.906"/>
	<path fill="#FFFFFF" d="M233.074,61.906c0-0.475-0.386-0.859-0.86-0.859c-0.477,0-0.861,0.385-0.861,0.859
		c0,0.474,0.385,0.859,0.861,0.859C232.688,62.766,233.074,62.381,233.074,61.906"/>
	<path fill="#FFFFFF" d="M236.084,61.906c0-0.475-0.385-0.859-0.859-0.859c-0.477,0-0.861,0.385-0.861,0.859
		c0,0.474,0.385,0.859,0.861,0.859C235.7,62.766,236.084,62.381,236.084,61.906"/>
	<path fill="#FFFFFF" d="M257.166,61.906c0-0.475-0.386-0.859-0.86-0.859c-0.477,0-0.861,0.385-0.861,0.859
		c0,0.474,0.385,0.859,0.861,0.859C256.78,62.766,257.166,62.381,257.166,61.906"/>
	<path fill="#FFFFFF" d="M260.176,61.906c0-0.475-0.385-0.859-0.859-0.859c-0.477,0-0.861,0.385-0.861,0.859
		c0,0.474,0.385,0.859,0.861,0.859C259.792,62.766,260.176,62.381,260.176,61.906"/>
	<path fill="#FFFFFF" d="M263.188,61.906c0-0.475-0.385-0.859-0.86-0.859c-0.475,0-0.86,0.385-0.86,0.859
		c0,0.474,0.385,0.859,0.86,0.859S263.188,62.381,263.188,61.906"/>
	<path fill="#FFFFFF" d="M266.2,61.906c0-0.475-0.385-0.859-0.86-0.859c-0.475,0-0.86,0.385-0.86,0.859
		c0,0.474,0.385,0.859,0.86,0.859C265.815,62.766,266.2,62.381,266.2,61.906"/>
	<path fill="#FFFFFF" d="M251.142,61.906c0-0.475-0.385-0.859-0.86-0.859c-0.475,0-0.86,0.385-0.86,0.859
		c0,0.474,0.385,0.859,0.86,0.859C250.757,62.766,251.142,62.381,251.142,61.906"/>
	<path fill="#FFFFFF" d="M254.154,61.906c0-0.475-0.385-0.859-0.86-0.859s-0.86,0.385-0.86,0.859c0,0.474,0.385,0.859,0.86,0.859
		S254.154,62.381,254.154,61.906"/>
	<path fill="#2B2622" d="M267.334,61.947l-17.54-40.149c-0.191-0.438-0.623-0.72-1.102-0.72c-0.478,0-0.91,0.282-1.101,0.72
		l-17.613,40.315c-0.162,0.371-0.126,0.537,0.097,0.875c0.222,0.34,0.6,0.281,1.005,0.281h1.293c0.399,8,7.556,15.6,16.319,15.6
		c8.765,0,15.92-7.6,16.32-15.6h1.293h0.016c0.663,0,1.201-0.275,1.201-0.938C267.523,62.094,267.455,62.133,267.334,61.947
		 M248.693,25.157L264.47,61.27h-0.642h-30.271h-0.642L248.693,25.157z M248.693,76.467c-7.44,0-13.54-6.197-13.935-13.197h27.87
		C262.233,70.27,256.134,76.467,248.693,76.467"/>
	<path fill="#FFFFFF" d="M341.789,65.258c-0.049,0.473,0.295,0.895,0.768,0.945c0.474,0.047,0.896-0.297,0.943-0.77
		c0.048-0.475-0.297-0.896-0.77-0.943C342.26,64.441,341.836,64.785,341.789,65.258"/>
	<path fill="#FFFFFF" d="M338.792,64.951c-0.048,0.473,0.296,0.895,0.768,0.945c0.474,0.047,0.896-0.297,0.943-0.771
		s-0.295-0.896-0.77-0.941C339.264,64.135,338.84,64.479,338.792,64.951"/>
	<path fill="#FFFFFF" d="M340.598,62.109c-0.049,0.473,0.295,0.895,0.769,0.941c0.473,0.049,0.895-0.295,0.942-0.77
		c0.05-0.475-0.297-0.896-0.768-0.941C341.068,61.293,340.645,61.637,340.598,62.109"/>
	<path fill="#FFFFFF" d="M337.601,61.803c-0.048,0.473,0.297,0.896,0.769,0.943c0.474,0.049,0.896-0.295,0.944-0.77
		c0.049-0.473-0.296-0.896-0.768-0.941C338.072,60.986,337.649,61.33,337.601,61.803"/>
	<path fill="#FFFFFF" d="M334.605,61.496c-0.049,0.473,0.296,0.895,0.769,0.943c0.473,0.047,0.895-0.295,0.943-0.77
		c0.048-0.477-0.296-0.896-0.77-0.941C335.077,60.68,334.653,61.023,334.605,61.496"/>
	<path fill="#FFFFFF" d="M339.406,58.959c-0.049,0.475,0.295,0.896,0.768,0.945c0.474,0.047,0.896-0.297,0.943-0.771
		c0.049-0.473-0.295-0.895-0.769-0.941C339.876,58.143,339.453,58.486,339.406,58.959"/>
	<path fill="#FFFFFF" d="M336.41,58.654c-0.048,0.473,0.296,0.895,0.768,0.943c0.475,0.047,0.896-0.299,0.944-0.771
		c0.048-0.475-0.296-0.896-0.769-0.943C336.88,57.836,336.458,58.18,336.41,58.654"/>
	<path fill="#FFFFFF" d="M333.414,58.348c-0.048,0.473,0.296,0.896,0.769,0.943c0.474,0.047,0.896-0.297,0.943-0.77
		c0.047-0.475-0.296-0.896-0.768-0.943C333.885,57.529,333.461,57.873,333.414,58.348"/>
	<path fill="#FFFFFF" d="M338.214,55.811c-0.048,0.475,0.296,0.896,0.769,0.943c0.473,0.049,0.895-0.295,0.943-0.768
		s-0.295-0.896-0.769-0.943C338.685,54.994,338.262,55.338,338.214,55.811"/>
	<path fill="#FFFFFF" d="M335.218,55.504c-0.048,0.473,0.296,0.895,0.77,0.945c0.473,0.047,0.895-0.297,0.942-0.77
		c0.048-0.475-0.296-0.896-0.769-0.943C335.688,54.688,335.266,55.031,335.218,55.504"/>
	<path fill="#FFFFFF" d="M332.222,55.197c-0.048,0.473,0.296,0.895,0.77,0.945c0.473,0.047,0.896-0.297,0.942-0.771
		c0.05-0.475-0.296-0.896-0.768-0.941C332.694,54.381,332.27,54.725,332.222,55.197"/>
	<path fill="#FFFFFF" d="M337.023,52.662c-0.049,0.473,0.296,0.895,0.768,0.943c0.474,0.049,0.896-0.295,0.944-0.771
		c0.048-0.471-0.296-0.896-0.77-0.939C337.494,51.844,337.071,52.189,337.023,52.662"/>
	<path fill="#FFFFFF" d="M334.027,52.355c-0.049,0.473,0.296,0.895,0.769,0.941c0.473,0.049,0.896-0.295,0.943-0.771
		c0.048-0.473-0.296-0.895-0.77-0.939C334.499,51.537,334.075,51.883,334.027,52.355"/>
	<path fill="#FFFFFF" d="M331.032,52.049c-0.049,0.473,0.295,0.895,0.768,0.943c0.474,0.048,0.896-0.295,0.943-0.77
		c0.049-0.475-0.296-0.896-0.77-0.941C331.502,51.232,331.08,51.576,331.032,52.049"/>
	<path fill="#FFFFFF" d="M335.832,49.512c-0.048,0.474,0.296,0.896,0.768,0.944c0.475,0.048,0.896-0.297,0.944-0.77
		s-0.296-0.895-0.768-0.942C336.302,48.695,335.879,49.04,335.832,49.512"/>
	<path fill="#FFFFFF" d="M332.835,49.206c-0.048,0.474,0.296,0.896,0.769,0.944c0.474,0.048,0.896-0.297,0.943-0.77
		c0.048-0.472-0.296-0.895-0.768-0.942C333.307,48.388,332.883,48.733,332.835,49.206"/>
	<path fill="#FFFFFF" d="M337.636,46.67c-0.048,0.473,0.296,0.895,0.769,0.944c0.474,0.048,0.895-0.296,0.943-0.769
		c0.05-0.473-0.295-0.895-0.769-0.943C338.107,45.853,337.684,46.197,337.636,46.67"/>
	<path fill="#FFFFFF" d="M334.64,46.363c-0.048,0.473,0.296,0.895,0.77,0.944c0.473,0.048,0.896-0.296,0.942-0.769
		c0.049-0.472-0.296-0.895-0.768-0.943C335.111,45.546,334.688,45.89,334.64,46.363"/>
	<path fill="#FFFFFF" d="M331.644,46.057c-0.048,0.473,0.297,0.895,0.77,0.944c0.473,0.048,0.896-0.296,0.943-0.769
		c0.049-0.473-0.297-0.896-0.769-0.943C332.116,45.24,331.692,45.583,331.644,46.057"/>
	<path fill="#FFFFFF" d="M336.445,43.521c-0.048,0.473,0.296,0.895,0.768,0.944c0.475,0.048,0.896-0.296,0.944-0.769
		c0.048-0.472-0.296-0.895-0.77-0.943C336.916,42.704,336.493,43.048,336.445,43.521"/>
	<path fill="#FFFFFF" d="M333.449,43.214c-0.048,0.473,0.296,0.895,0.769,0.944c0.474,0.048,0.896-0.296,0.943-0.769
		c0.048-0.473-0.296-0.895-0.77-0.943C333.92,42.397,333.497,42.741,333.449,43.214"/>
	<path fill="#FFFFFF" d="M338.25,40.678c-0.048,0.473,0.296,0.895,0.768,0.944c0.474,0.048,0.897-0.296,0.944-0.769
		c0.049-0.473-0.295-0.895-0.768-0.943C338.72,39.861,338.297,40.205,338.25,40.678"/>
	<path fill="#FFFFFF" d="M335.253,40.372c-0.048,0.473,0.296,0.895,0.769,0.944c0.474,0.048,0.896-0.296,0.943-0.769
		c0.048-0.473-0.296-0.895-0.768-0.943C335.724,39.555,335.301,39.898,335.253,40.372"/>
	<path fill="#FFFFFF" d="M332.257,40.065c-0.048,0.473,0.296,0.895,0.77,0.944c0.473,0.048,0.896-0.296,0.942-0.769
		c0.048-0.472-0.296-0.895-0.768-0.943C332.729,39.248,332.305,39.592,332.257,40.065"/>
	<path fill="#FFFFFF" d="M340.055,37.835c-0.049,0.473,0.295,0.895,0.769,0.944c0.473,0.048,0.895-0.296,0.942-0.769
		c0.049-0.473-0.297-0.895-0.77-0.943C340.525,37.019,340.102,37.363,340.055,37.835"/>
	<path fill="#FFFFFF" d="M337.058,37.529c-0.048,0.473,0.296,0.895,0.769,0.944c0.474,0.048,0.896-0.296,0.943-0.769
		c0.049-0.473-0.296-0.895-0.768-0.943C337.529,36.712,337.106,37.056,337.058,37.529"/>
	<path fill="#FFFFFF" d="M334.062,37.222c-0.049,0.473,0.296,0.895,0.769,0.944c0.473,0.048,0.896-0.296,0.943-0.769
		c0.048-0.472-0.296-0.895-0.769-0.943C334.533,36.405,334.11,36.75,334.062,37.222"/>
	<path fill="#FFFFFF" d="M341.857,34.993c-0.048,0.473,0.297,0.895,0.77,0.944c0.473,0.048,0.895-0.296,0.943-0.769
		c0.048-0.473-0.297-0.895-0.771-0.943C342.33,34.176,341.906,34.52,341.857,34.993"/>
	<path fill="#FFFFFF" d="M338.863,34.687c-0.048,0.473,0.296,0.895,0.768,0.944c0.473,0.048,0.896-0.296,0.943-0.769
		c0.048-0.473-0.295-0.895-0.771-0.943C339.334,33.87,338.911,34.213,338.863,34.687"/>
	<path fill="#FFFFFF" d="M335.867,34.38c-0.048,0.473,0.296,0.895,0.768,0.944c0.475,0.048,0.896-0.296,0.944-0.769
		c0.048-0.473-0.296-0.895-0.77-0.943C336.337,33.563,335.915,33.907,335.867,34.38"/>
	<path fill="#FFFFFF" d="M343.662,32.15c-0.047,0.473,0.297,0.895,0.77,0.944c0.474,0.048,0.896-0.296,0.943-0.769
		c0.047-0.473-0.297-0.895-0.768-0.943C344.133,31.333,343.711,31.678,343.662,32.15"/>
	<path fill="#FFFFFF" d="M340.666,31.844c-0.047,0.473,0.297,0.896,0.77,0.944c0.474,0.048,0.896-0.296,0.943-0.769
		c0.049-0.472-0.297-0.895-0.768-0.943C341.139,31.027,340.715,31.371,340.666,31.844"/>
	<path fill="#FFFFFF" d="M337.671,31.537c-0.048,0.473,0.296,0.895,0.769,0.944c0.474,0.048,0.896-0.296,0.943-0.769
		c0.049-0.473-0.295-0.895-0.768-0.943C338.142,30.72,337.719,31.064,337.671,31.537"/>
	<path fill="#FFFFFF" d="M345.467,29.308c-0.047,0.473,0.297,0.895,0.769,0.944c0.475,0.048,0.896-0.296,0.944-0.769
		c0.047-0.473-0.297-0.895-0.77-0.943C345.938,28.491,345.516,28.835,345.467,29.308"/>
	<path fill="#FFFFFF" d="M342.471,29.001c-0.047,0.473,0.297,0.895,0.771,0.944c0.473,0.048,0.895-0.296,0.942-0.769
		c0.048-0.472-0.297-0.895-0.768-0.943C342.943,28.185,342.52,28.528,342.471,29.001"/>
	<path fill="#FFFFFF" d="M339.477,28.695c-0.049,0.473,0.296,0.895,0.769,0.944c0.473,0.048,0.895-0.296,0.942-0.769
		c0.05-0.473-0.297-0.895-0.768-0.943C339.947,27.878,339.523,28.222,339.477,28.695"/>
	<path fill="#FFFFFF" d="M347.271,26.465c-0.048,0.473,0.297,0.895,0.768,0.944c0.475,0.048,0.896-0.296,0.945-0.769
		c0.047-0.473-0.297-0.895-0.771-0.943C347.742,25.648,347.32,25.993,347.271,26.465"/>
	<path fill="#FFFFFF" d="M344.275,26.159c-0.048,0.473,0.297,0.895,0.77,0.944c0.473,0.048,0.896-0.296,0.943-0.769
		c0.047-0.473-0.297-0.895-0.771-0.943C344.746,25.342,344.324,25.686,344.275,26.159"/>
	<path fill="#FFFFFF" d="M341.279,25.852c-0.047,0.473,0.297,0.895,0.77,0.944c0.473,0.048,0.896-0.296,0.943-0.769
		c0.048-0.473-0.297-0.895-0.771-0.943C341.752,25.035,341.328,25.379,341.279,25.852"/>
	<path fill="#FFFFFF" d="M344.625,71.438c0.475,0.047,0.896-0.297,0.945-0.77c0.047-0.473-0.297-0.895-0.771-0.943
		c-0.473-0.047-0.895,0.297-0.942,0.77C343.809,70.967,344.152,71.389,344.625,71.438"/>
	<path fill="#FFFFFF" d="M341.783,69.633c0.473,0.047,0.895-0.297,0.942-0.768c0.05-0.475-0.295-0.896-0.768-0.945
		c-0.473-0.047-0.896,0.297-0.943,0.768C340.967,69.162,341.311,69.584,341.783,69.633"/>
	<path fill="#FFFFFF" d="M341.477,72.629c0.474,0.047,0.896-0.297,0.943-0.77c0.048-0.475-0.295-0.896-0.768-0.943
		c-0.474-0.047-0.896,0.297-0.943,0.768C340.66,72.156,341.004,72.58,341.477,72.629"/>
	<path fill="#FFFFFF" d="M338.941,67.828c0.473,0.047,0.895-0.297,0.943-0.768c0.049-0.477-0.297-0.896-0.769-0.945
		c-0.474-0.047-0.896,0.297-0.943,0.77S338.468,67.779,338.941,67.828"/>
	<path fill="#FFFFFF" d="M338.634,70.824c0.474,0.047,0.896-0.297,0.944-0.768c0.049-0.477-0.297-0.896-0.77-0.945
		c-0.472-0.047-0.895,0.297-0.942,0.768C337.817,70.354,338.162,70.775,338.634,70.824"/>
	<path fill="#FFFFFF" d="M338.328,73.82c0.473,0.047,0.895-0.297,0.944-0.771c0.049-0.473-0.297-0.896-0.77-0.941
		c-0.472-0.049-0.895,0.297-0.943,0.768C337.51,73.348,337.855,73.771,338.328,73.82"/>
	<path fill="#FFFFFF" d="M335.792,69.02c0.473,0.047,0.896-0.297,0.944-0.768c0.048-0.475-0.296-0.896-0.771-0.945
		c-0.472-0.047-0.895,0.297-0.941,0.77C334.975,68.549,335.319,68.971,335.792,69.02"/>
	<path fill="#FFFFFF" d="M335.485,72.016c0.473,0.047,0.896-0.297,0.943-0.77s-0.296-0.895-0.77-0.943
		c-0.472-0.047-0.896,0.297-0.942,0.768C334.668,71.545,335.012,71.967,335.485,72.016"/>
	<path fill="#FFFFFF" d="M335.178,75.01c0.475,0.049,0.896-0.295,0.943-0.768c0.049-0.473-0.295-0.895-0.769-0.943
		s-0.896,0.297-0.942,0.768C334.362,74.539,334.706,74.963,335.178,75.01"/>
	<path fill="#FFFFFF" d="M332.643,70.211c0.474,0.047,0.896-0.297,0.943-0.768c0.048-0.477-0.296-0.896-0.769-0.945
		c-0.474-0.047-0.896,0.297-0.943,0.768C331.826,69.74,332.169,70.162,332.643,70.211"/>
	<path fill="#FFFFFF" d="M332.336,73.207c0.473,0.047,0.896-0.297,0.942-0.77c0.049-0.475-0.295-0.896-0.769-0.943
		c-0.474-0.049-0.896,0.297-0.942,0.768C331.519,72.734,331.863,73.158,332.336,73.207"/>
	<path fill="#FFFFFF" d="M332.03,76.201c0.473,0.049,0.895-0.295,0.942-0.768c0.049-0.475-0.296-0.896-0.769-0.943
		c-0.473-0.049-0.896,0.295-0.943,0.768C331.212,75.73,331.556,76.154,332.03,76.201"/>
	<path fill="#FFFFFF" d="M329.494,71.402c0.473,0.047,0.895-0.297,0.941-0.771c0.051-0.473-0.295-0.896-0.768-0.941
		c-0.473-0.047-0.895,0.297-0.943,0.768C328.676,70.932,329.02,71.354,329.494,71.402"/>
	<path fill="#FFFFFF" d="M329.188,74.398c0.473,0.047,0.895-0.297,0.943-0.771c0.048-0.475-0.297-0.896-0.77-0.941
		c-0.473-0.051-0.896,0.297-0.943,0.768C328.37,73.926,328.713,74.35,329.188,74.398"/>
	<path fill="#FFFFFF" d="M326.344,72.594c0.474,0.047,0.896-0.297,0.943-0.77s-0.295-0.895-0.77-0.943
		c-0.472-0.047-0.895,0.297-0.941,0.768C325.528,72.123,325.872,72.545,326.344,72.594"/>
	<path fill="#FFFFFF" d="M326.038,75.59c0.473,0.047,0.895-0.297,0.944-0.77c0.048-0.473-0.297-0.896-0.771-0.943
		c-0.472-0.049-0.895,0.297-0.942,0.768C325.221,75.117,325.565,75.541,326.038,75.59"/>
	<path fill="#2B2622" d="M375.002,48.917c1.348-13.184-5.57-24.653-15.445-25.815c-0.584-0.237-1.485-0.366-2.866-0.507
		c-1.45-0.149-3.153-0.21-4.521-0.277c-0.873-0.042-1.629-0.069-2.022-0.109c-9.986-1.022-19.218,8.953-20.576,22.23
		c-0.894,8.719,1.853,16.355,6.856,20.775l-15.85,7.313c-0.442,0.205-0.719,0.658-0.696,1.146c0.021,0.488,0.337,0.914,0.797,1.08
		l11.347,4.045c0.092,0.033,0.187,0.056,0.28,0.063c0.22,0.021,0.442-0.016,0.645-0.112l16.869-8.131
		c1.094,0.264,2.297,0.491,3.538,0.618l0.012-0.176c0.375,0.037,0.766-0.093,1.141-0.093h0.004
		C364.471,71.971,373.646,62.162,375.002,48.917 M331.959,44.689c1.224-11.958,9.271-20.966,17.939-20.078
		c0.334,0.034,0.819,0.063,1.424,0.093c-6.5,3.252-11.574,11.106-12.556,20.682c-0.878,8.575,1.743,16.458,6.396,21.247
		l-3.908-1.076C334.817,62.506,330.97,54.346,331.959,44.689 M332.357,76.367l-8.101-2.889l13.727-6.332l2.411,0.666
		c1.482,0.678,3.08,1.135,4.777,1.328c0.221,0.09,0.648,0.26,1.221,0.463L332.357,76.367z M354.658,68.928
		c-8.467-0.865-14.5-13.533-13.502-23.296c1-9.763,9.475-20.945,17.941-20.079c8.668,0.887,14.724,11.338,13.5,23.297
		C371.375,60.809,363.326,69.814,354.658,68.928"/>
	<path fill="#2B2622" d="M357.957,36.698c-4.469-0.458-8.59,3.9-9.186,9.712c-0.595,5.812,2.559,10.916,7.026,11.373
		s8.589-3.9,9.186-9.714C365.578,42.257,362.426,37.155,357.957,36.698 M356.043,55.393c-3.15-0.324-5.34-4.242-4.879-8.738
		c0.459-4.495,3.396-7.889,6.547-7.567c3.152,0.323,5.342,4.242,4.881,8.737C362.133,52.318,359.193,55.715,356.043,55.393"/>
</g>
<path fill="#FFFFFF" d="M450.472,29.07c-13.729,0-24.86,8.076-24.86,18.038c0,5.513,3.413,10.445,8.783,13.753l-3.899,11.281
	l11.464-8.082c2.656,0.699,5.523,1.086,8.515,1.086c13.73,0,24.861-8.076,24.861-18.041C475.333,37.146,464.202,29.07,450.472,29.07
	"/>
<path fill="#FF5A5D" d="M473.058,39.44c0.477,0,0.859-0.385,0.859-0.86c0-0.476-0.385-0.861-0.859-0.861
	c-0.476,0-0.858,0.385-0.858,0.861C472.197,39.055,472.582,39.44,473.058,39.44"/>
<path fill="#FF5A5D" d="M473.058,42.452c0.477,0,0.859-0.385,0.859-0.86c0-0.476-0.385-0.861-0.859-0.861
	c-0.476,0-0.858,0.385-0.858,0.861C472.197,42.066,472.582,42.452,473.058,42.452"/>
<path fill="#FF5A5D" d="M473.058,45.463c0.477,0,0.859-0.385,0.859-0.86c0-0.476-0.385-0.861-0.859-0.861
	c-0.476,0-0.858,0.385-0.858,0.861C472.197,45.078,472.582,45.463,473.058,45.463"/>
<path fill="#FF5A5D" d="M473.058,48.475c0.477,0,0.859-0.386,0.859-0.86c0-0.476-0.385-0.861-0.859-0.861
	c-0.476,0-0.858,0.385-0.858,0.861C472.197,48.089,472.582,48.475,473.058,48.475"/>
<path fill="#FF5A5D" d="M473.058,51.486c0.477,0,0.859-0.385,0.859-0.861c0-0.476-0.385-0.86-0.859-0.86
	c-0.476,0-0.858,0.385-0.858,0.86C472.197,51.102,472.582,51.486,473.058,51.486"/>
<path fill="#FF5A5D" d="M473.058,54.498c0.477,0,0.859-0.387,0.859-0.861c0-0.474-0.385-0.861-0.859-0.861
	c-0.476,0-0.858,0.389-0.858,0.861C472.198,54.111,472.582,54.498,473.058,54.498"/>
<path fill="#FF5A5D" d="M470.046,40.946c0.477,0,0.86-0.385,0.86-0.86c0-0.476-0.388-0.861-0.86-0.861s-0.86,0.385-0.86,0.861
	C469.186,40.561,469.571,40.946,470.046,40.946"/>
<path fill="#FF5A5D" d="M470.046,43.958c0.477,0,0.86-0.385,0.86-0.86c0-0.476-0.388-0.861-0.86-0.861s-0.86,0.385-0.86,0.861
	C469.186,43.572,469.571,43.958,470.046,43.958"/>
<path fill="#FF5A5D" d="M470.046,46.969c0.477,0,0.86-0.385,0.86-0.86c0-0.476-0.388-0.861-0.86-0.861s-0.86,0.385-0.86,0.861
	C469.186,46.584,469.571,46.969,470.046,46.969"/>
<path fill="#FF5A5D" d="M470.046,49.981c0.477,0,0.86-0.386,0.86-0.861s-0.388-0.86-0.86-0.86s-0.86,0.385-0.86,0.86
	S469.571,49.981,470.046,49.981"/>
<path fill="#FF5A5D" d="M470.046,37.935c0.477,0,0.86-0.385,0.86-0.86c0-0.476-0.388-0.861-0.86-0.861s-0.86,0.385-0.86,0.861
	C469.186,37.549,469.571,37.935,470.046,37.935"/>
<path fill="#FF5A5D" d="M470.046,52.992c0.477,0,0.86-0.385,0.86-0.861c0-0.475-0.388-0.859-0.86-0.859s-0.86,0.387-0.86,0.859
	C469.186,52.607,469.571,52.992,470.046,52.992"/>
<path fill="#FF5A5D" d="M470.046,56.004c0.477,0,0.86-0.387,0.86-0.861c0-0.474-0.388-0.859-0.86-0.859s-0.86,0.387-0.86,0.859
	C469.186,55.617,469.571,56.004,470.046,56.004"/>
<path fill="#FF5A5D" d="M467.034,39.44c0.476,0,0.858-0.385,0.858-0.86c0-0.476-0.385-0.861-0.858-0.861
	c-0.477,0-0.859,0.385-0.859,0.861C466.175,39.055,466.56,39.44,467.034,39.44"/>
<path fill="#FF5A5D" d="M467.034,42.452c0.476,0,0.858-0.385,0.858-0.86c0-0.476-0.385-0.861-0.858-0.861
	c-0.477,0-0.859,0.385-0.859,0.861C466.175,42.066,466.56,42.452,467.034,42.452"/>
<path fill="#FF5A5D" d="M467.034,45.463c0.476,0,0.858-0.385,0.858-0.86c0-0.476-0.385-0.861-0.858-0.861
	c-0.477,0-0.859,0.385-0.859,0.861C466.175,45.078,466.56,45.463,467.034,45.463"/>
<path fill="#FF5A5D" d="M467.034,48.475c0.476,0,0.858-0.386,0.858-0.86c0-0.476-0.385-0.861-0.858-0.861
	c-0.477,0-0.859,0.385-0.859,0.861C466.175,48.089,466.56,48.475,467.034,48.475"/>
<path fill="#FF5A5D" d="M467.034,36.429c0.476,0,0.858-0.385,0.858-0.86c0-0.476-0.385-0.861-0.858-0.861
	c-0.477,0-0.859,0.385-0.859,0.861C466.175,36.043,466.56,36.429,467.034,36.429"/>
<path fill="#FF5A5D" d="M467.034,57.508c0.476,0,0.858-0.385,0.858-0.859c0-0.477-0.385-0.859-0.858-0.859
	c-0.477,0-0.859,0.385-0.859,0.859S466.56,57.508,467.034,57.508"/>
<path fill="#FF5A5D" d="M467.034,51.486c0.476,0,0.858-0.385,0.858-0.861c0-0.476-0.385-0.86-0.858-0.86
	c-0.477,0-0.859,0.385-0.859,0.86C466.175,51.102,466.56,51.486,467.034,51.486"/>
<path fill="#FF5A5D" d="M467.034,54.498c0.476,0,0.858-0.387,0.858-0.861c0-0.474-0.385-0.861-0.858-0.861
	c-0.477,0-0.859,0.389-0.859,0.861C466.175,54.111,466.56,54.498,467.034,54.498"/>
<path fill="#FF5A5D" d="M464.023,40.946c0.475,0,0.857-0.385,0.857-0.86c0-0.476-0.385-0.861-0.857-0.861
	c-0.478,0-0.86,0.385-0.86,0.861C463.163,40.561,463.548,40.946,464.023,40.946"/>
<path fill="#FF5A5D" d="M464.023,43.958c0.475,0,0.857-0.385,0.857-0.86c0-0.476-0.385-0.861-0.857-0.861
	c-0.478,0-0.86,0.385-0.86,0.861C463.163,43.572,463.548,43.958,464.023,43.958"/>
<path fill="#FF5A5D" d="M464.023,46.969c0.475,0,0.857-0.385,0.857-0.86c0-0.476-0.385-0.861-0.857-0.861
	c-0.478,0-0.86,0.385-0.86,0.861C463.163,46.584,463.548,46.969,464.023,46.969"/>
<path fill="#FF5A5D" d="M464.023,49.981c0.475,0,0.857-0.386,0.857-0.861s-0.385-0.86-0.857-0.86c-0.478,0-0.86,0.385-0.86,0.86
	S463.548,49.981,464.023,49.981"/>
<path fill="#FF5A5D" d="M464.023,34.923c0.475,0,0.857-0.385,0.857-0.86c0-0.476-0.385-0.861-0.857-0.861
	c-0.478,0-0.86,0.385-0.86,0.861C463.163,34.538,463.548,34.923,464.023,34.923"/>
<path fill="#FF5A5D" d="M464.023,37.935c0.475,0,0.857-0.385,0.857-0.86c0-0.476-0.385-0.861-0.857-0.861
	c-0.478,0-0.86,0.385-0.86,0.861C463.163,37.549,463.548,37.935,464.023,37.935"/>
<path fill="#FF5A5D" d="M464.023,59.014c0.475,0,0.857-0.385,0.857-0.859c0-0.477-0.385-0.859-0.857-0.859
	c-0.478,0-0.86,0.387-0.86,0.859C463.163,58.629,463.548,59.014,464.023,59.014"/>
<path fill="#FF5A5D" d="M464.023,52.992c0.475,0,0.857-0.385,0.857-0.861c0-0.475-0.385-0.859-0.857-0.859
	c-0.478,0-0.86,0.387-0.86,0.859C463.163,52.607,463.548,52.992,464.023,52.992"/>
<path fill="#FF5A5D" d="M464.023,56.004c0.475,0,0.857-0.387,0.857-0.861c0-0.474-0.385-0.859-0.857-0.859
	c-0.478,0-0.86,0.387-0.86,0.859C463.163,55.617,463.548,56.004,464.023,56.004"/>
<path fill="#FF5A5D" d="M461.012,39.44c0.477,0,0.86-0.385,0.86-0.86c0-0.476-0.386-0.861-0.86-0.861
	c-0.476,0-0.858,0.385-0.858,0.861C460.151,39.055,460.536,39.44,461.012,39.44"/>
<path fill="#FF5A5D" d="M461.012,42.452c0.477,0,0.86-0.385,0.86-0.86c0-0.476-0.386-0.861-0.86-0.861
	c-0.476,0-0.858,0.385-0.858,0.861C460.151,42.066,460.536,42.452,461.012,42.452"/>
<path fill="#FF5A5D" d="M461.012,45.463c0.477,0,0.86-0.385,0.86-0.86c0-0.476-0.386-0.861-0.86-0.861
	c-0.476,0-0.858,0.385-0.858,0.861C460.151,45.078,460.536,45.463,461.012,45.463"/>
<path fill="#FF5A5D" d="M461.012,48.475c0.477,0,0.86-0.386,0.86-0.86c0-0.476-0.386-0.861-0.86-0.861
	c-0.476,0-0.858,0.385-0.858,0.861C460.151,48.089,460.536,48.475,461.012,48.475"/>
<path fill="#FF5A5D" d="M461.012,33.417c0.477,0,0.86-0.385,0.86-0.86c0-0.476-0.386-0.861-0.86-0.861
	c-0.476,0-0.858,0.385-0.858,0.861C460.151,33.032,460.536,33.417,461.012,33.417"/>
<path fill="#FF5A5D" d="M461.012,36.429c0.477,0,0.86-0.385,0.86-0.86c0-0.476-0.386-0.861-0.86-0.861
	c-0.476,0-0.858,0.385-0.858,0.861C460.151,36.043,460.536,36.429,461.012,36.429"/>
<path fill="#FF5A5D" d="M461.012,57.508c0.477,0,0.86-0.385,0.86-0.859c0-0.477-0.386-0.859-0.86-0.859
	c-0.476,0-0.858,0.385-0.858,0.859C460.151,57.123,460.536,57.508,461.012,57.508"/>
<path fill="#FF5A5D" d="M461.012,60.52c0.477,0,0.86-0.385,0.86-0.857c0-0.479-0.386-0.861-0.86-0.861
	c-0.476,0-0.858,0.387-0.858,0.861C460.151,60.135,460.536,60.52,461.012,60.52"/>
<path fill="#FF5A5D" d="M461.012,51.486c0.477,0,0.86-0.385,0.86-0.861c0-0.476-0.386-0.86-0.86-0.86
	c-0.476,0-0.858,0.385-0.858,0.86C460.151,51.102,460.536,51.486,461.012,51.486"/>
<path fill="#FF5A5D" d="M461.012,54.498c0.477,0,0.86-0.387,0.86-0.861c0-0.474-0.386-0.861-0.86-0.861
	c-0.476,0-0.858,0.389-0.858,0.861C460.152,54.111,460.536,54.498,461.012,54.498"/>
<path fill="#FF5A5D" d="M458,40.946c0.476,0,0.86-0.385,0.86-0.86c0-0.476-0.387-0.861-0.86-0.861s-0.86,0.385-0.86,0.861
	C457.14,40.561,457.525,40.946,458,40.946"/>
<path fill="#FF5A5D" d="M458,43.958c0.476,0,0.86-0.385,0.86-0.86c0-0.476-0.387-0.861-0.86-0.861s-0.86,0.385-0.86,0.861
	C457.14,43.572,457.525,43.958,458,43.958"/>
<path fill="#FF5A5D" d="M458,46.969c0.476,0,0.86-0.385,0.86-0.86c0-0.476-0.387-0.861-0.86-0.861s-0.86,0.385-0.86,0.861
	C457.14,46.584,457.525,46.969,458,46.969"/>
<path fill="#FF5A5D" d="M458,49.981c0.476,0,0.86-0.386,0.86-0.861s-0.387-0.86-0.86-0.86s-0.86,0.385-0.86,0.86
	S457.525,49.981,458,49.981"/>
<path fill="#FF5A5D" d="M458,31.912c0.476,0,0.86-0.385,0.86-0.86c0-0.476-0.387-0.861-0.86-0.861s-0.86,0.385-0.86,0.861
	C457.14,31.526,457.525,31.912,458,31.912"/>
<path fill="#FF5A5D" d="M458,34.923c0.476,0,0.86-0.385,0.86-0.86c0-0.476-0.387-0.861-0.86-0.861s-0.86,0.385-0.86,0.861
	C457.14,34.538,457.525,34.923,458,34.923"/>
<path fill="#FF5A5D" d="M458,37.935c0.476,0,0.86-0.385,0.86-0.86c0-0.476-0.387-0.861-0.86-0.861s-0.86,0.385-0.86,0.861
	C457.14,37.549,457.525,37.935,458,37.935"/>
<path fill="#FF5A5D" d="M458,59.014c0.476,0,0.86-0.385,0.86-0.859c0-0.477-0.387-0.859-0.86-0.859s-0.86,0.387-0.86,0.859
	C457.14,58.629,457.525,59.014,458,59.014"/>
<path fill="#FF5A5D" d="M458,62.025c0.476,0,0.86-0.385,0.86-0.859c0-0.477-0.387-0.861-0.86-0.861s-0.86,0.385-0.86,0.861
	C457.14,61.641,457.525,62.025,458,62.025"/>
<path fill="#FF5A5D" d="M458,52.992c0.476,0,0.86-0.385,0.86-0.861c0-0.475-0.387-0.859-0.86-0.859s-0.86,0.387-0.86,0.859
	C457.14,52.607,457.525,52.992,458,52.992"/>
<path fill="#FF5A5D" d="M458,56.004c0.476,0,0.86-0.387,0.86-0.861c0-0.474-0.387-0.859-0.86-0.859s-0.86,0.387-0.86,0.859
	C457.14,55.617,457.525,56.004,458,56.004"/>
<path fill="#FF5A5D" d="M454.988,39.44c0.476,0,0.858-0.385,0.858-0.86c0-0.476-0.385-0.861-0.858-0.861
	c-0.477,0-0.86,0.385-0.86,0.861C454.128,39.055,454.514,39.44,454.988,39.44"/>
<path fill="#FF5A5D" d="M454.988,42.452c0.476,0,0.858-0.385,0.858-0.86c0-0.476-0.385-0.861-0.858-0.861
	c-0.477,0-0.86,0.385-0.86,0.861C454.128,42.066,454.514,42.452,454.988,42.452"/>
<path fill="#FF5A5D" d="M454.988,45.463c0.476,0,0.858-0.385,0.858-0.86c0-0.476-0.385-0.861-0.858-0.861
	c-0.477,0-0.86,0.385-0.86,0.861C454.128,45.078,454.514,45.463,454.988,45.463"/>
<path fill="#FF5A5D" d="M454.988,48.475c0.476,0,0.858-0.386,0.858-0.86c0-0.476-0.385-0.861-0.858-0.861
	c-0.477,0-0.86,0.385-0.86,0.861C454.128,48.089,454.514,48.475,454.988,48.475"/>
<path fill="#FF5A5D" d="M454.988,30.406c0.476,0,0.858-0.385,0.858-0.86c0-0.476-0.385-0.861-0.858-0.861
	c-0.477,0-0.86,0.385-0.86,0.861C454.128,30.021,454.514,30.406,454.988,30.406"/>
<path fill="#FF5A5D" d="M454.988,33.417c0.476,0,0.858-0.385,0.858-0.86c0-0.476-0.385-0.861-0.858-0.861
	c-0.477,0-0.86,0.385-0.86,0.861C454.128,33.032,454.514,33.417,454.988,33.417"/>
<path fill="#FF5A5D" d="M454.988,36.429c0.476,0,0.858-0.385,0.858-0.86c0-0.476-0.385-0.861-0.858-0.861
	c-0.477,0-0.86,0.385-0.86,0.861C454.128,36.043,454.514,36.429,454.988,36.429"/>
<path fill="#FF5A5D" d="M454.988,57.508c0.476,0,0.858-0.385,0.858-0.859c0-0.477-0.385-0.859-0.858-0.859
	c-0.477,0-0.86,0.385-0.86,0.859S454.514,57.508,454.988,57.508"/>
<path fill="#FF5A5D" d="M454.988,60.52c0.476,0,0.858-0.385,0.858-0.857c0-0.479-0.385-0.861-0.858-0.861
	c-0.477,0-0.86,0.387-0.86,0.861C454.128,60.135,454.514,60.52,454.988,60.52"/>
<path fill="#FF5A5D" d="M454.988,63.531c0.476,0,0.858-0.385,0.858-0.859c0-0.477-0.385-0.861-0.858-0.861
	c-0.477,0-0.86,0.385-0.86,0.861C454.128,63.146,454.514,63.531,454.988,63.531"/>
<path fill="#FF5A5D" d="M454.988,51.486c0.476,0,0.858-0.385,0.858-0.861c0-0.476-0.385-0.86-0.858-0.86
	c-0.477,0-0.86,0.385-0.86,0.86C454.128,51.102,454.514,51.486,454.988,51.486"/>
<path fill="#FF5A5D" d="M454.988,54.498c0.476,0,0.858-0.387,0.858-0.861c0-0.474-0.385-0.861-0.858-0.861
	c-0.477,0-0.86,0.389-0.86,0.861C454.128,54.111,454.514,54.498,454.988,54.498"/>
<path fill="#FF5A5D" d="M451.978,40.946c0.477,0,0.859-0.385,0.859-0.86c0-0.476-0.385-0.861-0.859-0.861
	c-0.476,0-0.858,0.385-0.858,0.861C451.117,40.561,451.502,40.946,451.978,40.946"/>
<path fill="#FF5A5D" d="M451.978,43.958c0.477,0,0.859-0.385,0.859-0.86c0-0.476-0.385-0.861-0.859-0.861
	c-0.476,0-0.858,0.385-0.858,0.861C451.117,43.572,451.502,43.958,451.978,43.958"/>
<path fill="#FF5A5D" d="M451.978,46.969c0.477,0,0.859-0.385,0.859-0.86c0-0.476-0.385-0.861-0.859-0.861
	c-0.476,0-0.858,0.385-0.858,0.861C451.117,46.584,451.502,46.969,451.978,46.969"/>
<path fill="#FF5A5D" d="M451.978,49.981c0.477,0,0.859-0.386,0.859-0.861s-0.385-0.86-0.859-0.86c-0.476,0-0.858,0.385-0.858,0.86
	S451.502,49.981,451.978,49.981"/>
<path fill="#FF5A5D" d="M451.978,31.912c0.477,0,0.859-0.385,0.859-0.86c0-0.476-0.385-0.861-0.859-0.861
	c-0.476,0-0.858,0.385-0.858,0.861C451.117,31.526,451.502,31.912,451.978,31.912"/>
<path fill="#FF5A5D" d="M451.978,34.923c0.477,0,0.859-0.385,0.859-0.86c0-0.476-0.385-0.861-0.859-0.861
	c-0.476,0-0.858,0.385-0.858,0.861C451.117,34.538,451.502,34.923,451.978,34.923"/>
<path fill="#FF5A5D" d="M451.978,37.935c0.477,0,0.859-0.385,0.859-0.86c0-0.476-0.385-0.861-0.859-0.861
	c-0.476,0-0.858,0.385-0.858,0.861C451.117,37.549,451.502,37.935,451.978,37.935"/>
<path fill="#FF5A5D" d="M451.978,59.014c0.477,0,0.859-0.385,0.859-0.859c0-0.477-0.385-0.859-0.859-0.859
	c-0.476,0-0.858,0.387-0.858,0.859C451.117,58.629,451.502,59.014,451.978,59.014"/>
<path fill="#FF5A5D" d="M451.978,62.025c0.477,0,0.859-0.385,0.859-0.859c0-0.477-0.385-0.861-0.859-0.861
	c-0.476,0-0.858,0.385-0.858,0.861C451.117,61.641,451.502,62.025,451.978,62.025"/>
<path fill="#FF5A5D" d="M451.978,52.992c0.477,0,0.859-0.385,0.859-0.861c0-0.475-0.385-0.859-0.859-0.859
	c-0.476,0-0.858,0.387-0.858,0.859C451.117,52.607,451.502,52.992,451.978,52.992"/>
<path fill="#FF5A5D" d="M451.978,56.004c0.477,0,0.859-0.387,0.859-0.861c0-0.474-0.385-0.859-0.859-0.859
	c-0.476,0-0.858,0.387-0.858,0.859C451.118,55.617,451.502,56.004,451.978,56.004"/>
<path fill="#FF5A5D" d="M448.966,39.44c0.477,0,0.859-0.385,0.859-0.86c0-0.476-0.385-0.861-0.859-0.861
	c-0.476,0-0.858,0.385-0.858,0.861C448.105,39.055,448.49,39.44,448.966,39.44"/>
<path fill="#FF5A5D" d="M448.966,42.452c0.477,0,0.859-0.385,0.859-0.86c0-0.476-0.385-0.861-0.859-0.861
	c-0.476,0-0.858,0.385-0.858,0.861C448.105,42.066,448.49,42.452,448.966,42.452"/>
<path fill="#FF5A5D" d="M448.966,45.463c0.477,0,0.859-0.385,0.859-0.86c0-0.476-0.385-0.861-0.859-0.861
	c-0.476,0-0.858,0.385-0.858,0.861C448.105,45.078,448.49,45.463,448.966,45.463"/>
<path fill="#FF5A5D" d="M448.966,48.475c0.477,0,0.859-0.386,0.859-0.86c0-0.476-0.385-0.861-0.859-0.861
	c-0.476,0-0.858,0.385-0.858,0.861C448.105,48.089,448.49,48.475,448.966,48.475"/>
<path fill="#FF5A5D" d="M448.966,30.406c0.477,0,0.859-0.385,0.859-0.86c0-0.476-0.385-0.861-0.859-0.861
	c-0.476,0-0.858,0.385-0.858,0.861C448.105,30.021,448.49,30.406,448.966,30.406"/>
<path fill="#FF5A5D" d="M448.966,33.417c0.477,0,0.859-0.385,0.859-0.86c0-0.476-0.385-0.861-0.859-0.861
	c-0.476,0-0.858,0.385-0.858,0.861C448.105,33.032,448.49,33.417,448.966,33.417"/>
<path fill="#FF5A5D" d="M448.966,36.429c0.477,0,0.859-0.385,0.859-0.86c0-0.476-0.385-0.861-0.859-0.861
	c-0.476,0-0.858,0.385-0.858,0.861C448.105,36.043,448.49,36.429,448.966,36.429"/>
<path fill="#FF5A5D" d="M448.966,57.508c0.477,0,0.859-0.385,0.859-0.859c0-0.477-0.385-0.859-0.859-0.859
	c-0.476,0-0.858,0.385-0.858,0.859C448.105,57.123,448.49,57.508,448.966,57.508"/>
<path fill="#FF5A5D" d="M448.966,60.52c0.477,0,0.859-0.385,0.859-0.857c0-0.479-0.385-0.861-0.859-0.861
	c-0.476,0-0.858,0.387-0.858,0.861C448.105,60.135,448.49,60.52,448.966,60.52"/>
<path fill="#FF5A5D" d="M448.966,63.531c0.477,0,0.859-0.385,0.859-0.859c0-0.477-0.385-0.861-0.859-0.861
	c-0.476,0-0.858,0.385-0.858,0.861C448.105,63.146,448.49,63.531,448.966,63.531"/>
<path fill="#FF5A5D" d="M448.966,51.486c0.477,0,0.859-0.385,0.859-0.861c0-0.476-0.385-0.86-0.859-0.86
	c-0.476,0-0.858,0.385-0.858,0.86C448.105,51.102,448.49,51.486,448.966,51.486"/>
<path fill="#FF5A5D" d="M448.966,54.498c0.477,0,0.859-0.387,0.859-0.861c0-0.474-0.385-0.861-0.859-0.861
	c-0.476,0-0.858,0.389-0.858,0.861C448.106,54.111,448.49,54.498,448.966,54.498"/>
<path fill="#FF5A5D" d="M445.954,40.946c0.475,0,0.86-0.385,0.86-0.86c0-0.476-0.388-0.861-0.86-0.861s-0.86,0.385-0.86,0.861
	C445.094,40.561,445.479,40.946,445.954,40.946"/>
<path fill="#FF5A5D" d="M445.954,43.958c0.475,0,0.86-0.385,0.86-0.86c0-0.476-0.388-0.861-0.86-0.861s-0.86,0.385-0.86,0.861
	C445.094,43.572,445.479,43.958,445.954,43.958"/>
<path fill="#FF5A5D" d="M445.954,46.969c0.475,0,0.86-0.385,0.86-0.86c0-0.476-0.388-0.861-0.86-0.861s-0.86,0.385-0.86,0.861
	C445.094,46.584,445.479,46.969,445.954,46.969"/>
<path fill="#FF5A5D" d="M445.954,49.981c0.475,0,0.86-0.386,0.86-0.861s-0.388-0.86-0.86-0.86s-0.86,0.385-0.86,0.86
	S445.479,49.981,445.954,49.981"/>
<path fill="#FF5A5D" d="M445.954,31.912c0.475,0,0.86-0.385,0.86-0.86c0-0.476-0.388-0.861-0.86-0.861s-0.86,0.385-0.86,0.861
	C445.094,31.526,445.479,31.912,445.954,31.912"/>
<path fill="#FF5A5D" d="M445.954,34.923c0.475,0,0.86-0.385,0.86-0.86c0-0.476-0.388-0.861-0.86-0.861s-0.86,0.385-0.86,0.861
	C445.094,34.538,445.479,34.923,445.954,34.923"/>
<path fill="#FF5A5D" d="M445.954,37.935c0.475,0,0.86-0.385,0.86-0.86c0-0.476-0.388-0.861-0.86-0.861s-0.86,0.385-0.86,0.861
	C445.094,37.549,445.479,37.935,445.954,37.935"/>
<path fill="#FF5A5D" d="M445.954,59.014c0.475,0,0.86-0.385,0.86-0.859c0-0.477-0.388-0.859-0.86-0.859s-0.86,0.387-0.86,0.859
	C445.094,58.629,445.479,59.014,445.954,59.014"/>
<path fill="#FF5A5D" d="M445.954,62.025c0.475,0,0.86-0.385,0.86-0.859c0-0.477-0.388-0.861-0.86-0.861s-0.86,0.385-0.86,0.861
	C445.094,61.641,445.479,62.025,445.954,62.025"/>
<path fill="#FF5A5D" d="M445.954,52.992c0.475,0,0.86-0.385,0.86-0.861c0-0.475-0.388-0.859-0.86-0.859s-0.86,0.387-0.86,0.859
	C445.094,52.607,445.479,52.992,445.954,52.992"/>
<path fill="#FF5A5D" d="M445.954,56.004c0.475,0,0.86-0.387,0.86-0.861c0-0.474-0.388-0.859-0.86-0.859s-0.86,0.387-0.86,0.859
	C445.094,55.617,445.479,56.004,445.954,56.004"/>
<path fill="#FF5A5D" d="M442.942,39.44c0.476,0,0.858-0.385,0.858-0.86c0-0.476-0.385-0.861-0.858-0.861
	c-0.477,0-0.859,0.385-0.859,0.861C442.083,39.055,442.468,39.44,442.942,39.44"/>
<path fill="#FF5A5D" d="M442.942,42.452c0.476,0,0.858-0.385,0.858-0.86c0-0.476-0.385-0.861-0.858-0.861
	c-0.477,0-0.859,0.385-0.859,0.861C442.083,42.066,442.468,42.452,442.942,42.452"/>
<path fill="#FF5A5D" d="M442.942,45.463c0.476,0,0.858-0.385,0.858-0.86c0-0.476-0.385-0.861-0.858-0.861
	c-0.477,0-0.859,0.385-0.859,0.861C442.083,45.078,442.468,45.463,442.942,45.463"/>
<path fill="#FF5A5D" d="M442.942,48.475c0.476,0,0.858-0.386,0.858-0.86c0-0.476-0.385-0.861-0.858-0.861
	c-0.477,0-0.859,0.385-0.859,0.861C442.083,48.089,442.468,48.475,442.942,48.475"/>
<path fill="#FF5A5D" d="M442.942,30.406c0.476,0,0.858-0.385,0.858-0.86c0-0.476-0.385-0.861-0.858-0.861
	c-0.477,0-0.859,0.385-0.859,0.861C442.083,30.021,442.468,30.406,442.942,30.406"/>
<path fill="#FF5A5D" d="M442.942,33.417c0.476,0,0.858-0.385,0.858-0.86c0-0.476-0.385-0.861-0.858-0.861
	c-0.477,0-0.859,0.385-0.859,0.861C442.083,33.032,442.468,33.417,442.942,33.417"/>
<path fill="#FF5A5D" d="M442.942,36.429c0.476,0,0.858-0.385,0.858-0.86c0-0.476-0.385-0.861-0.858-0.861
	c-0.477,0-0.859,0.385-0.859,0.861C442.083,36.043,442.468,36.429,442.942,36.429"/>
<path fill="#FF5A5D" d="M442.942,57.508c0.476,0,0.858-0.385,0.858-0.859c0-0.477-0.385-0.859-0.858-0.859
	c-0.477,0-0.859,0.385-0.859,0.859S442.468,57.508,442.942,57.508"/>
<path fill="#FF5A5D" d="M442.942,60.52c0.476,0,0.858-0.385,0.858-0.857c0-0.479-0.385-0.861-0.858-0.861
	c-0.477,0-0.859,0.387-0.859,0.861C442.083,60.135,442.468,60.52,442.942,60.52"/>
<path fill="#FF5A5D" d="M442.942,63.531c0.476,0,0.858-0.385,0.858-0.859c0-0.477-0.385-0.861-0.858-0.861
	c-0.477,0-0.859,0.385-0.859,0.861C442.083,63.146,442.468,63.531,442.942,63.531"/>
<path fill="#FF5A5D" d="M442.942,51.486c0.476,0,0.858-0.385,0.858-0.861c0-0.476-0.385-0.86-0.858-0.86
	c-0.477,0-0.859,0.385-0.859,0.86C442.083,51.102,442.468,51.486,442.942,51.486"/>
<path fill="#FF5A5D" d="M442.942,54.498c0.476,0,0.858-0.387,0.858-0.861c0-0.474-0.385-0.861-0.858-0.861
	c-0.477,0-0.859,0.389-0.859,0.861C442.083,54.111,442.468,54.498,442.942,54.498"/>
<path fill="#FF5A5D" d="M439.931,40.946c0.478,0,0.86-0.385,0.86-0.86c0-0.476-0.385-0.861-0.86-0.861
	c-0.475,0-0.857,0.385-0.857,0.861C439.071,40.561,439.456,40.946,439.931,40.946"/>
<path fill="#FF5A5D" d="M439.931,43.958c0.478,0,0.86-0.385,0.86-0.86c0-0.476-0.385-0.861-0.86-0.861
	c-0.475,0-0.857,0.385-0.857,0.861C439.071,43.572,439.456,43.958,439.931,43.958"/>
<path fill="#FF5A5D" d="M439.931,46.969c0.478,0,0.86-0.385,0.86-0.86c0-0.476-0.385-0.861-0.86-0.861
	c-0.475,0-0.857,0.385-0.857,0.861C439.071,46.584,439.456,46.969,439.931,46.969"/>
<path fill="#FF5A5D" d="M439.931,49.981c0.478,0,0.86-0.386,0.86-0.861s-0.385-0.86-0.86-0.86c-0.475,0-0.857,0.385-0.857,0.86
	S439.456,49.981,439.931,49.981"/>
<path fill="#FF5A5D" d="M439.931,31.912c0.478,0,0.86-0.385,0.86-0.86c0-0.476-0.385-0.861-0.86-0.861
	c-0.475,0-0.857,0.385-0.857,0.861C439.071,31.526,439.456,31.912,439.931,31.912"/>
<path fill="#FF5A5D" d="M439.931,34.923c0.478,0,0.86-0.385,0.86-0.86c0-0.476-0.385-0.861-0.86-0.861
	c-0.475,0-0.857,0.385-0.857,0.861C439.071,34.538,439.456,34.923,439.931,34.923"/>
<path fill="#FF5A5D" d="M439.931,37.935c0.478,0,0.86-0.385,0.86-0.86c0-0.476-0.385-0.861-0.86-0.861
	c-0.475,0-0.857,0.385-0.857,0.861C439.071,37.549,439.456,37.935,439.931,37.935"/>
<path fill="#FF5A5D" d="M439.931,59.014c0.478,0,0.86-0.385,0.86-0.859c0-0.477-0.385-0.859-0.86-0.859
	c-0.475,0-0.857,0.387-0.857,0.859C439.071,58.629,439.456,59.014,439.931,59.014"/>
<path fill="#FF5A5D" d="M439.931,62.025c0.478,0,0.86-0.385,0.86-0.859c0-0.477-0.385-0.861-0.86-0.861
	c-0.475,0-0.857,0.385-0.857,0.861C439.071,61.641,439.456,62.025,439.931,62.025"/>
<path fill="#FF5A5D" d="M439.931,65.037c0.478,0,0.86-0.385,0.86-0.859c0-0.477-0.385-0.861-0.86-0.861
	c-0.475,0-0.857,0.387-0.857,0.861C439.071,64.652,439.456,65.037,439.931,65.037"/>
<path fill="#FF5A5D" d="M439.931,52.992c0.478,0,0.86-0.385,0.86-0.861c0-0.475-0.385-0.859-0.86-0.859
	c-0.475,0-0.857,0.387-0.857,0.859C439.071,52.607,439.456,52.992,439.931,52.992"/>
<path fill="#FF5A5D" d="M439.931,56.004c0.478,0,0.86-0.387,0.86-0.861c0-0.474-0.385-0.859-0.86-0.859
	c-0.475,0-0.857,0.387-0.857,0.859C439.072,55.617,439.456,56.004,439.931,56.004"/>
<path fill="#FF5A5D" d="M436.92,39.44c0.475,0,0.859-0.385,0.859-0.86c0-0.476-0.387-0.861-0.859-0.861
	c-0.476,0-0.86,0.385-0.86,0.861C436.06,39.055,436.444,39.44,436.92,39.44"/>
<path fill="#FF5A5D" d="M436.92,42.452c0.475,0,0.859-0.385,0.859-0.86c0-0.476-0.387-0.861-0.859-0.861
	c-0.476,0-0.86,0.385-0.86,0.861C436.06,42.066,436.444,42.452,436.92,42.452"/>
<path fill="#FF5A5D" d="M436.92,45.463c0.475,0,0.859-0.385,0.859-0.86c0-0.476-0.387-0.861-0.859-0.861
	c-0.476,0-0.86,0.385-0.86,0.861C436.06,45.078,436.444,45.463,436.92,45.463"/>
<path fill="#FF5A5D" d="M436.92,48.475c0.475,0,0.859-0.386,0.859-0.86c0-0.476-0.387-0.861-0.859-0.861
	c-0.476,0-0.86,0.385-0.86,0.861C436.06,48.089,436.444,48.475,436.92,48.475"/>
<path fill="#FF5A5D" d="M436.92,33.417c0.475,0,0.859-0.385,0.859-0.86c0-0.476-0.387-0.861-0.859-0.861
	c-0.476,0-0.86,0.385-0.86,0.861C436.06,33.032,436.444,33.417,436.92,33.417"/>
<path fill="#FF5A5D" d="M436.92,36.429c0.475,0,0.859-0.385,0.859-0.86c0-0.476-0.387-0.861-0.859-0.861
	c-0.476,0-0.86,0.385-0.86,0.861C436.06,36.043,436.444,36.429,436.92,36.429"/>
<path fill="#FF5A5D" d="M436.92,57.508c0.475,0,0.859-0.385,0.859-0.859c0-0.477-0.387-0.859-0.859-0.859
	c-0.476,0-0.86,0.385-0.86,0.859S436.444,57.508,436.92,57.508"/>
<path fill="#FF5A5D" d="M436.92,60.52c0.475,0,0.859-0.385,0.859-0.857c0-0.479-0.387-0.861-0.859-0.861
	c-0.476,0-0.86,0.387-0.86,0.861C436.06,60.135,436.444,60.52,436.92,60.52"/>
<path fill="#FF5A5D" d="M436.92,63.531c0.475,0,0.859-0.385,0.859-0.859c0-0.477-0.387-0.861-0.859-0.861
	c-0.476,0-0.86,0.385-0.86,0.861C436.06,63.146,436.444,63.531,436.92,63.531"/>
<path fill="#FF5A5D" d="M436.92,66.543c0.475,0,0.859-0.385,0.859-0.859c0-0.477-0.387-0.859-0.859-0.859
	c-0.476,0-0.86,0.385-0.86,0.859S436.444,66.543,436.92,66.543"/>
<path fill="#FF5A5D" d="M436.92,51.486c0.475,0,0.859-0.385,0.859-0.861c0-0.476-0.387-0.86-0.859-0.86
	c-0.476,0-0.86,0.385-0.86,0.86C436.06,51.102,436.444,51.486,436.92,51.486"/>
<path fill="#FF5A5D" d="M436.92,54.498c0.475,0,0.859-0.387,0.859-0.861c0-0.474-0.387-0.861-0.859-0.861
	c-0.476,0-0.86,0.389-0.86,0.861C436.06,54.111,436.444,54.498,436.92,54.498"/>
<path fill="#FF5A5D" d="M433.908,40.946c0.475,0,0.858-0.385,0.858-0.86c0-0.476-0.386-0.861-0.858-0.861
	c-0.478,0-0.86,0.385-0.86,0.861C433.048,40.561,433.433,40.946,433.908,40.946"/>
<path fill="#FF5A5D" d="M433.908,43.958c0.475,0,0.858-0.385,0.858-0.86c0-0.476-0.386-0.861-0.858-0.861
	c-0.478,0-0.86,0.385-0.86,0.861C433.048,43.572,433.433,43.958,433.908,43.958"/>
<path fill="#FF5A5D" d="M433.908,46.969c0.475,0,0.858-0.385,0.858-0.86c0-0.476-0.386-0.861-0.858-0.861
	c-0.478,0-0.86,0.385-0.86,0.861C433.048,46.584,433.433,46.969,433.908,46.969"/>
<path fill="#FF5A5D" d="M433.908,49.981c0.475,0,0.858-0.386,0.858-0.861s-0.386-0.86-0.858-0.86c-0.478,0-0.86,0.385-0.86,0.86
	S433.433,49.981,433.908,49.981"/>
<path fill="#FF5A5D" d="M433.908,34.923c0.475,0,0.858-0.385,0.858-0.86c0-0.476-0.386-0.861-0.858-0.861
	c-0.478,0-0.86,0.385-0.86,0.861C433.048,34.538,433.433,34.923,433.908,34.923"/>
<path fill="#FF5A5D" d="M433.908,37.935c0.475,0,0.858-0.385,0.858-0.86c0-0.476-0.386-0.861-0.858-0.861
	c-0.478,0-0.86,0.385-0.86,0.861C433.048,37.549,433.433,37.935,433.908,37.935"/>
<path fill="#FF5A5D" d="M433.908,59.014c0.475,0,0.858-0.385,0.858-0.859c0-0.477-0.386-0.859-0.858-0.859
	c-0.478,0-0.86,0.387-0.86,0.859C433.048,58.629,433.433,59.014,433.908,59.014"/>
<path fill="#FF5A5D" d="M433.908,62.025c0.475,0,0.858-0.385,0.858-0.859c0-0.477-0.386-0.861-0.858-0.861
	c-0.478,0-0.86,0.385-0.86,0.861C433.048,61.641,433.433,62.025,433.908,62.025"/>
<path fill="#FF5A5D" d="M433.908,65.037c0.475,0,0.858-0.385,0.858-0.859c0-0.477-0.386-0.861-0.858-0.861
	c-0.478,0-0.86,0.387-0.86,0.861S433.433,65.037,433.908,65.037"/>
<path fill="#FF5A5D" d="M433.908,68.049c0.475,0,0.858-0.385,0.858-0.859c0-0.477-0.386-0.859-0.858-0.859
	c-0.478,0-0.86,0.385-0.86,0.859S433.433,68.049,433.908,68.049"/>
<path fill="#FF5A5D" d="M433.908,52.992c0.475,0,0.858-0.385,0.858-0.861c0-0.475-0.386-0.859-0.858-0.859
	c-0.478,0-0.86,0.387-0.86,0.859C433.048,52.607,433.433,52.992,433.908,52.992"/>
<path fill="#FF5A5D" d="M433.908,56.004c0.475,0,0.858-0.387,0.858-0.861c0-0.474-0.386-0.859-0.858-0.859
	c-0.478,0-0.86,0.387-0.86,0.859C433.048,55.617,433.433,56.004,433.908,56.004"/>
<path fill="#FF5A5D" d="M430.896,39.44c0.476,0,0.858-0.385,0.858-0.86c0-0.476-0.385-0.861-0.858-0.861
	c-0.477,0-0.86,0.385-0.86,0.861C430.036,39.055,430.422,39.44,430.896,39.44"/>
<path fill="#FF5A5D" d="M430.896,42.452c0.476,0,0.858-0.385,0.858-0.86c0-0.476-0.385-0.861-0.858-0.861
	c-0.477,0-0.86,0.385-0.86,0.861C430.036,42.066,430.422,42.452,430.896,42.452"/>
<path fill="#FF5A5D" d="M430.896,45.463c0.476,0,0.858-0.385,0.858-0.86c0-0.476-0.385-0.861-0.858-0.861
	c-0.477,0-0.86,0.385-0.86,0.861C430.036,45.078,430.422,45.463,430.896,45.463"/>
<path fill="#FF5A5D" d="M430.896,48.475c0.476,0,0.858-0.386,0.858-0.86c0-0.476-0.385-0.861-0.858-0.861
	c-0.477,0-0.86,0.385-0.86,0.861C430.036,48.089,430.422,48.475,430.896,48.475"/>
<path fill="#FF5A5D" d="M430.896,36.429c0.476,0,0.858-0.385,0.858-0.86c0-0.476-0.385-0.861-0.858-0.861
	c-0.477,0-0.86,0.385-0.86,0.861C430.036,36.043,430.422,36.429,430.896,36.429"/>
<path fill="#FF5A5D" d="M430.896,57.508c0.476,0,0.858-0.385,0.858-0.859c0-0.477-0.385-0.859-0.858-0.859
	c-0.477,0-0.86,0.385-0.86,0.859S430.422,57.508,430.896,57.508"/>
<path fill="#FF5A5D" d="M430.896,51.486c0.476,0,0.858-0.385,0.858-0.861c0-0.476-0.385-0.86-0.858-0.86
	c-0.477,0-0.86,0.385-0.86,0.86C430.036,51.102,430.422,51.486,430.896,51.486"/>
<path fill="#FF5A5D" d="M430.896,54.498c0.476,0,0.858-0.387,0.858-0.861c0-0.474-0.385-0.861-0.858-0.861
	c-0.477,0-0.86,0.389-0.86,0.861C430.036,54.111,430.422,54.498,430.896,54.498"/>
<path fill="#FF5A5D" d="M427.886,40.946c0.477,0,0.859-0.385,0.859-0.86c0-0.476-0.385-0.861-0.859-0.861
	c-0.476,0-0.858,0.385-0.858,0.861C427.025,40.561,427.41,40.946,427.886,40.946"/>
<path fill="#FF5A5D" d="M427.886,43.958c0.477,0,0.859-0.385,0.859-0.86c0-0.476-0.385-0.861-0.859-0.861
	c-0.476,0-0.858,0.385-0.858,0.861C427.025,43.572,427.41,43.958,427.886,43.958"/>
<path fill="#FF5A5D" d="M427.886,46.969c0.477,0,0.859-0.385,0.859-0.86c0-0.476-0.385-0.861-0.859-0.861
	c-0.476,0-0.858,0.385-0.858,0.861C427.025,46.584,427.41,46.969,427.886,46.969"/>
<path fill="#FF5A5D" d="M427.886,49.981c0.477,0,0.859-0.386,0.859-0.861s-0.385-0.86-0.859-0.86c-0.476,0-0.858,0.385-0.858,0.86
	S427.41,49.981,427.886,49.981"/>
<path fill="#FF5A5D" d="M427.886,52.992c0.477,0,0.859-0.385,0.859-0.861c0-0.475-0.385-0.859-0.859-0.859
	c-0.476,0-0.858,0.387-0.858,0.859C427.025,52.607,427.41,52.992,427.886,52.992"/>
<path fill="#2B2622" d="M450.573,27.594c-14.371,0-26.062,8.631-26.062,19.24c0,5.462,3.101,10.611,8.541,14.253l-3.592,10.388
	c-0.171,0.493-0.004,1.041,0.412,1.354c0.215,0.162,0.47,0.239,0.724,0.239c0.241,0,0.483-0.069,0.691-0.219l11.013-7.763
	c2.658,0.654,5.439,0.986,8.273,0.986c14.372,0,26.062-8.632,26.062-19.24C476.637,36.224,464.945,27.594,450.573,27.594
	 M450.573,63.67c-2.822,0-5.583-0.352-8.207-1.045c-0.341-0.09-0.708-0.025-0.999,0.18l-8.419,5.938l2.684-7.762
	c0.186-0.529-0.024-1.121-0.506-1.416c-5.22-3.215-8.213-7.854-8.213-12.729c0-9.284,10.614-16.837,23.66-16.837
	c13.047,0,23.661,7.553,23.661,16.837S463.62,63.67,450.573,63.67"/>
<path fill="#2B2622" d="M461.113,41.168h-21.08c-0.663,0-1.202,0.336-1.202,1s0.539,1,1.202,1h21.08c0.664,0,1.202-0.336,1.202-1
	S461.777,41.168,461.113,41.168"/>
<path fill="#2B2622" d="M461.113,49.168h-21.08c-0.663,0-1.202,0.337-1.202,1s0.539,1,1.202,1h21.08c0.664,0,1.202-0.336,1.202-1
	S461.777,49.168,461.113,49.168"/>
<path fill="#2B2622" d="M563.039,71.209c-0.156,0-0.312-0.033-0.457-0.104l-13.975-6.555l-13.977,6.555
	c-0.354,0.17-0.771,0.129-1.092-0.104c-0.312-0.229-0.479-0.614-0.434-1.007l1.914-15.312l-10.551-11.263
	c-0.27-0.287-0.355-0.696-0.234-1.069c0.123-0.374,0.436-0.651,0.816-0.725l15.156-2.911l7.451-13.514
	c0.188-0.344,0.551-0.558,0.939-0.558c0.396,0,0.758,0.214,0.941,0.558l7.451,13.514l15.152,2.911
	c0.389,0.073,0.703,0.352,0.822,0.725s0.027,0.782-0.234,1.069L562.18,54.686l1.916,15.312c0.049,0.391-0.117,0.771-0.438,1.006
	C563.484,71.141,563.264,71.209,563.039,71.209 M548.607,62.287c0.156,0,0.312,0.035,0.459,0.104l12.658,5.938l-1.732-13.877
	c-0.039-0.315,0.062-0.636,0.283-0.869l9.561-10.207l-13.729-2.639c-0.313-0.06-0.587-0.257-0.739-0.537l-6.754-12.248L541.859,40.2
	c-0.152,0.279-0.43,0.478-0.74,0.537l-13.732,2.639l9.562,10.207c0.219,0.233,0.322,0.554,0.283,0.869l-1.736,13.877l12.662-5.938
	C548.297,62.322,548.451,62.287,548.607,62.287 M647.977,73c-0.33,0-0.646-0.154-0.852-0.42l-3.117-4.075l-4.504,2.454
	c-0.291,0.16-0.641,0.175-0.941,0.039c-0.307-0.135-0.525-0.402-0.604-0.729l-1.188-4.988l-5.115,0.41
	c-0.324,0.023-0.654-0.104-0.879-0.354c-0.227-0.247-0.314-0.583-0.254-0.908l0.938-5.043l-4.84-1.705
	c-0.312-0.109-0.561-0.359-0.66-0.679c-0.104-0.315-0.051-0.662,0.139-0.938l2.91-4.224l-3.727-3.524
	c-0.242-0.229-0.363-0.557-0.328-0.889c0.035-0.33,0.223-0.625,0.506-0.799l4.379-2.673l-1.973-4.737
	c-0.127-0.307-0.104-0.654,0.062-0.943s0.457-0.481,0.785-0.524l5.088-0.661l0.127-5.129c0.016-0.332,0.176-0.643,0.439-0.836
	c0.271-0.195,0.614-0.254,0.932-0.16l4.916,1.465l2.203-4.633c0.146-0.3,0.418-0.518,0.742-0.586
	c0.326-0.068,0.664,0.018,0.916,0.233l3.896,3.339l3.896-3.339c0.252-0.216,0.588-0.301,0.916-0.233
	c0.324,0.068,0.598,0.286,0.74,0.586l2.199,4.633l4.918-1.465c0.316-0.094,0.662-0.035,0.934,0.16
	c0.271,0.195,0.434,0.505,0.438,0.836l0.127,5.129l5.087,0.661c0.329,0.043,0.62,0.237,0.786,0.524
	c0.166,0.289,0.188,0.637,0.062,0.943l-1.969,4.737l4.377,2.673c0.283,0.174,0.473,0.469,0.506,0.799
	c0.035,0.332-0.086,0.659-0.326,0.889l-3.729,3.524l2.912,4.224c0.188,0.273,0.234,0.619,0.139,0.938
	c-0.105,0.313-0.348,0.563-0.66,0.679l-4.838,1.705l0.938,5.043c0.062,0.325-0.03,0.662-0.258,0.909
	c-0.221,0.247-0.549,0.376-0.879,0.353l-5.111-0.41l-1.188,4.988c-0.078,0.322-0.302,0.594-0.605,0.729
	c-0.303,0.136-0.648,0.121-0.939-0.039l-4.505-2.454l-3.118,4.075C648.623,72.846,648.309,73,647.977,73 M644.305,66.062
	c0.322,0,0.645,0.146,0.854,0.42l2.823,3.69l2.821-3.69c0.318-0.418,0.896-0.543,1.357-0.289l4.082,2.228l1.078-4.524
	c0.123-0.512,0.596-0.859,1.123-0.812l4.637,0.373l-0.857-4.571c-0.096-0.517,0.199-1.026,0.695-1.202l4.385-1.543l-2.639-3.828
	c-0.299-0.436-0.236-1.021,0.145-1.381l3.381-3.196l-3.971-2.423c-0.447-0.273-0.633-0.834-0.43-1.32l1.785-4.293l-4.609-0.6
	c-0.52-0.066-0.916-0.506-0.93-1.031l-0.115-4.648l-4.455,1.328c-0.508,0.15-1.045-0.09-1.27-0.564l-1.994-4.2l-3.531,3.025
	c-0.396,0.342-0.988,0.342-1.389,0l-3.529-3.025l-1.996,4.2c-0.225,0.475-0.764,0.716-1.27,0.564l-4.455-1.328l-0.113,4.648
	c-0.012,0.525-0.408,0.963-0.93,1.031l-4.611,0.6l1.787,4.293c0.201,0.485,0.02,1.047-0.43,1.32l-3.973,2.423l3.379,3.196
	c0.387,0.359,0.441,0.945,0.146,1.381l-2.641,3.828l4.387,1.543c0.498,0.174,0.793,0.686,0.695,1.201l-0.854,4.57l4.633-0.371
	c0.525-0.049,1.002,0.303,1.125,0.812l1.076,4.523l4.084-2.227C643.955,66.105,644.131,66.062,644.305,66.062"/>
</svg>
