<?xml version="1.0" encoding="iso-8859-1"?>
<!-- Generator: Adobe Illustrator 15.0.0, SVG Export Plug-In . SVG Version: 6.00 Build 0)  -->
<!DOCTYPE svg PUBLIC "-//W3C//DTD SVG 1.1//EN" "http://www.w3.org/Graphics/SVG/1.1/DTD/svg11.dtd">
<svg version="1.1" id="Capa_1" xmlns="http://www.w3.org/2000/svg" xmlns:xlink="http://www.w3.org/1999/xlink" x="0px" y="0px"
	 width="300px" height="70px" viewBox="0 0 300 70" style="enable-background:new 0 0 300 70;" xml:space="preserve">
<polygon style="fill:#2B2622;" points="14.53,21.516 6.69,10.398 6.69,28.738 0.811,28.738 0.791,0.336 6.498,0.336 15.994,14.578 
	25.485,0.336 31.003,0.336 31.055,28.738 25.29,28.738 25.29,10.479 17.454,21.516 "/>
<rect x="116.508" y="0.408" style="fill:#2B2622;" width="5.845" height="28.403"/>
<polygon style="fill:#2B2622;" points="53.037,19.204 57.192,8.443 61.348,19.204 67.056,19.204 59.545,0.408 54.84,0.408 
	47.332,19.204 "/>
<polygon style="fill:#2B2622;" points="153.033,19.034 144.51,19.034 138.91,19.034 134.935,28.811 141.021,28.811 142.644,24.319 
	154.898,24.319 156.521,28.811 162.609,28.811 158.635,19.034 "/>
<path style="fill:#2B2622;" d="M98.564,18.769c3.308-1.548,5.241-4.62,5.241-8.419c0-5.56-4.22-9.942-11.198-9.942h-9.78v28.404
	h5.842v-8.279h2.068c0.473,0,0.918,0.056,1.347,0.139c0.41,0.107,1.115,0.403,1.544,1.215l3.674,6.964h6.625L98.564,18.769z
	 M88.67,15.665V5.279h3.812c3.206,0,5.398,1.783,5.398,5.193c0,3.407-2.193,5.193-5.398,5.193H88.67z"/>
<path style="fill:#2B2622;" d="M30.367,57.329v-16.12h5.747v16.479c0,4.905,2.872,6.98,5.984,6.98c3.113,0,5.984-2.075,5.984-6.98
	V41.209h5.744v16.12c0,8.457-5.347,12.286-11.728,12.286C35.711,69.615,30.367,65.786,30.367,57.329"/>
<polygon style="fill:#2B2622;" points="66.407,41.209 70.637,41.209 83.919,58.725 83.919,41.209 89.667,41.209 89.667,69.615 
	85.438,69.615 72.153,51.582 72.153,69.615 66.407,69.615 "/>
<path style="fill:#2B2622;" d="M121.881,64.989h-12.05l-1.598,4.626h-5.984l11.292-28.404h4.63l11.289,28.404h-5.983L121.881,64.989
	z M111.667,60.202h8.378l-4.191-10.852L111.667,60.202z"/>
<rect x="175.369" y="41.209" style="fill:#2B2622;" width="5.742" height="28.406"/>
<rect x="193.699" y="63.874" style="fill:#2B2622;" width="31.541" height="5.741"/>
<polygon style="fill:#2B2622;" points="6.57,63.874 6.57,41.211 0.827,41.211 0.827,63.396 0.827,69.617 17.785,69.617 
	17.785,63.874 "/>
<path style="fill:#2B2622;" d="M252.6,41.083c8.277,0,14.783,5.91,14.783,14.267c0,8.354-6.506,14.268-14.783,14.268
	s-14.783-5.914-14.783-14.268C237.816,46.993,244.322,41.083,252.6,41.083 M252.6,64.729c5.008,0,9.023-3.824,9.023-9.38
	c0-5.557-4.016-9.382-9.023-9.382s-9.023,3.825-9.023,9.382C243.576,60.905,247.592,64.729,252.6,64.729"/>
<path style="fill:#2B2622;" d="M279.934,61.811h5.754c0.197,1.973,1.576,2.917,3.51,2.917c1.932,0,4.256-1.019,4.256-2.793
	c0-1.773-2.166-2.923-5.914-4.458c-5.498-2.27-7.447-4.87-7.447-8.912c0-4.534,3.311-7.489,8.635-7.489
	c4.926,0,9.691,3.039,9.691,7.851h-5.752c0-1.696-2.166-2.962-4.021-2.962c-1.893,0-2.799,1.143-2.799,2.521
	c0,1.657,2.207,2.746,6.07,4.4c5.521,2.367,7.293,4.85,7.293,8.714c0,4.868-4.529,8.018-10.09,8.018
	C283.561,69.617,280.246,66.228,279.934,61.811"/>
<path style="fill:#2B2622;" d="M157.514,59.483c3.254-1.52,5.154-4.542,5.154-8.275c0-5.468-4.148-9.997-11.012-9.997h-9.615v28.453
	h5.743v-8.443h2.034c0.464,0,0.903,0.055,1.325,0.136c0.404,0.105,1.096,0.395,1.518,1.195l3.613,7.089h6.512L157.514,59.483z
	 M147.784,56.434V46.218h3.751c3.148,0,5.307,1.757,5.307,5.109c0,3.352-2.158,5.106-5.307,5.106H147.784z"/>
<polygon style="fill:#2B2622;" points="217.449,52.264 217.449,41.211 211.705,41.211 211.705,58.085 225.234,58.085 
	225.234,52.264 "/>
<polygon style="fill:#2B2622;" points="199.439,41.209 193.693,41.209 193.693,58.085 207.225,58.085 207.225,52.264 
	199.439,52.264 "/>
</svg>
